<svg width="65" height="65" viewBox="0 0 65 65" fill="none" xmlns="http://www.w3.org/2000/svg">
<g clip-path="url(#clip0_146_3034)">
<path d="M15.917 36.5371V47.1665H53.2749C54.3422 47.1665 55.2075 46.3012 55.2075 45.2339C55.2075 44.2955 55.2075 37.4737 55.2075 36.5371L35.5622 33.9602L15.917 36.5371Z" fill="#8B9BA9"/>
<path d="M51.3422 36.022V43.3015H15.917V47.1667H53.2749C54.3422 47.1667 55.2075 46.3014 55.2075 45.2341C55.2075 44.3448 55.2075 37.4096 55.2075 36.5373L51.3422 36.022Z" fill="#6C7A88"/>
<path d="M56.9474 11.0691H21.7157C20.6484 11.0691 19.7831 11.9344 19.7831 13.0017V19.0243H6.89457C5.08668 19.0243 3.52024 20.2777 3.12354 22.0415L1.66081 28.5462C1.28511 30.217 1.09546 31.9244 1.09546 33.6369V47.1663H19.7831C19.7831 46.8518 19.7831 42.0718 19.7831 36.537H56.9475C58.0148 36.537 58.8801 35.6717 58.8801 34.6044V13.0017C58.88 11.9343 58.0149 11.0691 56.9474 11.0691Z" fill="#FF7E40"/>
<path d="M64.034 28.2373H58.8801V24.7693H61.4571C61.9909 24.7693 62.4234 24.3367 62.4234 23.803C62.4234 23.2694 61.9909 22.8367 61.4571 22.8367H58.8801V19.3687H62.7455C63.2793 19.3687 63.7118 18.9361 63.7118 18.4024C63.7118 17.8688 63.2793 17.4361 62.7455 17.4361H58.8801V13.968H64.034C64.5678 13.968 65.0003 13.5354 65.0003 13.0017C65.0003 12.468 64.5678 12.0354 64.034 12.0354H58.6195C58.2852 11.4583 57.6625 11.0691 56.9475 11.0691H55.0149V32.6719H19.7831C19.7831 25.8734 19.7831 19.2078 19.7831 19.0242H15.9179V36.5371H13.019C10.2018 36.5371 7.63901 37.6409 5.735 39.436H1.09546V47.1665H19.7831C19.7831 46.9043 19.7831 42.1024 19.7831 36.5371H31.6949H56.9475C57.6625 36.5371 58.2852 36.1479 58.6195 35.5708H62.7455C63.2793 35.5708 63.7118 35.1382 63.7118 34.6045C63.7118 34.0708 63.2793 33.6382 62.7455 33.6382H58.8801V30.1701H64.034C64.5678 30.1701 65.0003 29.7374 65.0003 29.2038C65.0003 28.6701 64.5678 28.2373 64.034 28.2373Z" fill="#FF6344"/>
<path d="M0.966303 47.1662H8.03913V43.301H0.966303C0.432646 43.301 0 43.7337 0 44.2673V46.1999C0 46.7337 0.432646 47.1662 0.966303 47.1662Z" fill="#8B9BA9"/>
<path d="M15.9179 22.8894H6.66405L4.82666 31.0601H15.9179V22.8894Z" fill="#9DC6FB"/>
<path d="M12.2832 27.1949H5.69582L4.82666 31.0601H15.9179V22.8894H12.2832V27.1949Z" fill="#80B4FB"/>
<path d="M45.8667 53.9304C49.6024 53.9304 52.6308 50.902 52.6308 47.1662C52.6308 43.4305 49.6024 40.4021 45.8667 40.4021C42.1309 40.4021 39.1025 43.4305 39.1025 47.1662C39.1025 50.902 42.1309 53.9304 45.8667 53.9304Z" fill="#4D5967"/>
<path d="M47.2499 40.5449C46.4571 42.0097 46.6788 43.8784 47.917 45.1164L43.8173 49.2162C42.5792 47.978 40.7105 47.7561 39.2456 48.5491C39.8857 51.6177 42.6112 53.9304 45.8671 53.9304C49.5969 53.9304 52.6312 50.8961 52.6312 47.1663C52.6311 43.9104 50.3185 41.185 47.2499 40.5449Z" fill="#35404A"/>
<path d="M45.8664 50.0654C47.4675 50.0654 48.7654 48.7675 48.7654 47.1665C48.7654 45.5655 47.4675 44.2676 45.8664 44.2676C44.2654 44.2676 42.9675 45.5655 42.9675 47.1665C42.9675 48.7675 44.2654 50.0654 45.8664 50.0654Z" fill="#FFF9EB"/>
<path d="M13.0188 53.9304C16.7545 53.9304 19.7829 50.902 19.7829 47.1662C19.7829 43.4305 16.7545 40.4021 13.0188 40.4021C9.28304 40.4021 6.25464 43.4305 6.25464 47.1662C6.25464 50.902 9.28304 53.9304 13.0188 53.9304Z" fill="#4D5967"/>
<path d="M14.402 40.5449C13.6092 42.0097 13.8309 43.8784 15.069 45.1164L10.9693 49.2162C9.73132 47.978 7.86262 47.7561 6.39771 48.5491C7.03778 51.6177 9.76327 53.9304 13.0192 53.9304C16.749 53.9304 19.7833 50.8961 19.7833 47.1663C19.7833 43.9104 17.4708 41.185 14.402 40.5449Z" fill="#35404A"/>
<path d="M13.0185 50.0654C14.6196 50.0654 15.9175 48.7675 15.9175 47.1665C15.9175 45.5655 14.6196 44.2676 13.0185 44.2676C11.4175 44.2676 10.1196 45.5655 10.1196 47.1665C10.1196 48.7675 11.4175 50.0654 13.0185 50.0654Z" fill="#FFF9EB"/>
<path d="M29.5606 21.8711V22.8374H30.7845C31.3182 22.8374 31.7505 23.2698 31.7505 23.8035C31.7505 24.3373 31.3182 24.7698 30.7845 24.7698H29.5606V26.7022C29.5606 27.236 29.128 27.6685 28.5945 27.6685C28.0609 27.6685 27.6284 27.2361 27.6284 26.7022V20.905C27.6284 20.3714 28.0609 19.939 28.5945 19.939H31.5574C32.0911 19.939 32.5235 20.3714 32.5235 20.905C32.5235 21.4388 32.0911 21.8713 31.5574 21.8713H29.5606V21.8711Z" fill="#FFF9EB"/>
<path d="M38.7694 26.0216C39.1449 26.4003 39.1424 27.0122 38.7636 27.3879C38.575 27.5746 38.3292 27.668 38.0832 27.668C37.8346 27.668 37.586 27.5727 37.3971 27.3821L35.7645 25.7357H35.2491V26.7017C35.2491 27.2355 34.8165 27.668 34.2829 27.668C33.7494 27.668 33.3169 27.2356 33.3169 26.7017V20.9045C33.3169 20.3709 33.7494 19.9385 34.2829 19.9385H36.1672C37.7565 19.9385 39.0495 21.2389 39.0495 22.837C39.0495 23.7799 38.5992 24.6187 37.9036 25.1485L38.7694 26.0216ZM37.117 22.837C37.117 22.3041 36.6908 21.8707 36.1672 21.8707H35.2491V23.803H36.1672C36.6908 23.803 37.117 23.3696 37.117 22.837Z" fill="#FFF9EB"/>
<path d="M45.0383 26.7015C45.0383 27.2352 44.606 27.6678 44.0723 27.6678H41.1094C40.5758 27.6678 40.1433 27.2354 40.1433 26.7015V20.9043C40.1433 20.3706 40.5758 19.9382 41.1094 19.9382H44.0723C44.606 19.9382 45.0383 20.3706 45.0383 20.9043C45.0383 21.4381 44.606 21.8706 44.0723 21.8706H42.0755V22.8369H43.2994C43.833 22.8369 44.2654 23.2693 44.2654 23.8031C44.2654 24.3368 43.833 24.7694 43.2994 24.7694H42.0755V25.7355H44.0723C44.606 25.7354 45.0383 26.1678 45.0383 26.7015Z" fill="#FFF9EB"/>
<path d="M51.0339 26.7015C51.0339 27.2352 50.6016 27.6678 50.0679 27.6678H47.105C46.5714 27.6678 46.1389 27.2354 46.1389 26.7015V20.9043C46.1389 20.3706 46.5714 19.9382 47.105 19.9382H50.0679C50.6016 19.9382 51.0339 20.3706 51.0339 20.9043C51.0339 21.4381 50.6016 21.8706 50.0679 21.8706H48.0711V22.8369H49.295C49.8286 22.8369 50.261 23.2693 50.261 23.8031C50.261 24.3368 49.8286 24.7694 49.295 24.7694H48.0711V25.7355H50.0679C50.6016 25.7354 51.0339 26.1678 51.0339 26.7015Z" fill="#FFF9EB"/>
</g>
<defs>
<clipPath id="clip0_146_3034">
<rect width="65" height="65" fill="white"/>
</clipPath>
</defs>
</svg>
