<?xml version="1.0" encoding="UTF-8"?>
<svg width="723px" height="692px" viewBox="0 0 723 692" xmlns="http://www.w3.org/2000/svg" xmlns:xlink="http://www.w3.org/1999/xlink" version="1.1">
 <!-- Generated by Pixelmator Pro 1.8 -->
 <path id="Path" d="M620.944 463.962 C596.909 500.42 555.701 521.85 512.032 521.85 L149.592 521.85 C76.742 521.85 35.891 436.674 83.137 388.712 130.382 340.749 88.651 299.785 161.524 261.325 232.124 224.063 256.229 303.489 321.267 251.518 386.307 199.55 480.995 204.452 501.8 257.402 522.603 310.352 517.701 328.986 561.826 340.752 605.951 352.516 649.095 419.194 622.619 461.358 622.069 462.236 621.51 463.104 620.944 463.962 Z" fill="#cbd5fc" fill-opacity="1" stroke="none"/>
 <path id="Path-1" d="M604.832 478.742 C566.65 481.981 540.911 553.551 445.462 510.532 445.462 510.532 455.943 479.289 502.894 459.814 549.844 440.339 604.832 478.742 604.832 478.742 Z" fill="#c8ddf5" fill-opacity="1" stroke="none"/>
 <path id="Path-2" d="M458.496 505.173 C468.461 499.992 478.797 495.526 489.353 491.64 491.979 490.631 494.642 489.723 497.314 488.839 499.974 487.918 502.668 487.102 505.358 486.269 508.038 485.405 510.767 484.704 513.486 483.967 514.846 483.604 516.202 483.22 517.569 482.877 L521.679 481.891 525.8 480.946 529.95 480.129 534.101 479.314 C535.485 479.049 536.882 478.843 538.276 478.631 541.068 478.219 543.848 477.751 546.66 477.482 549.468 477.191 552.26 476.785 555.085 476.681 566.329 475.864 577.699 476.049 588.786 477.926 577.555 477.654 566.42 478.318 555.377 479.679 L553.304 479.915 551.242 480.232 547.113 480.834 C544.357 481.187 541.627 481.741 538.891 482.235 537.526 482.502 536.149 482.694 534.786 482.978 L530.701 483.825 526.617 484.675 522.557 485.648 518.488 486.579 C517.134 486.902 515.791 487.269 514.442 487.612 L510.397 488.658 C509.047 489 507.718 489.417 506.37 489.771 503.682 490.509 500.99 491.229 498.327 492.058 495.66 492.869 492.975 493.63 490.318 494.483 479.659 497.803 469.095 501.458 458.496 505.173 Z" fill="#acbed3" fill-opacity="1" stroke="none"/>
 <path id="Path-3" d="M609.505 356.945 C562.917 390.247 584.468 501.848 428.998 519.421 428.998 519.421 418.619 471.277 464.081 410.423 509.544 349.569 609.505 356.945 609.505 356.945 Z" fill="#6c83dc" fill-opacity="1" stroke="none"/>
 <path id="Path-4" d="M439.341 505.975 C446.123 491.284 454.491 477.312 463.908 464.087 473.296 450.834 483.823 438.364 495.288 426.814 506.767 415.286 519.205 404.654 532.665 395.477 546.084 386.303 560.56 378.409 576 373.491 561.67 381.005 548.391 389.937 535.777 399.733 523.213 409.583 511.33 420.266 500.074 431.581 488.809 442.892 478.194 454.848 468.09 467.264 458.018 479.713 448.552 492.671 439.341 505.975 Z" fill="#c8ddf5" fill-opacity="1" stroke="none"/>
 <path id="Path-5" d="M106.942 468.795 C144.802 474.714 165.435 547.919 263.677 511.728 263.677 511.728 255.422 479.824 209.96 457.092 164.498 434.359 106.942 468.795 106.942 468.795 Z" fill="#c8ddf5" fill-opacity="1" stroke="none"/>
 <path id="Path-6" d="M251.053 505.465 C240.742 501.014 230.461 496.624 220.063 492.56 217.472 491.522 214.848 490.575 212.245 489.578 209.647 488.564 207.01 487.655 204.383 486.731 203.063 486.283 201.767 485.772 200.444 485.336 L196.483 484.008 C195.162 483.571 193.847 483.111 192.52 482.692 L188.527 481.477 184.545 480.222 180.53 479.086 176.515 477.952 C175.176 477.573 173.816 477.285 172.474 476.922 169.779 476.236 167.095 475.493 164.37 474.947 L160.294 474.054 158.258 473.593 156.209 473.213 C145.288 471.077 134.227 469.63 123.006 469.11 134.197 468.02 145.552 468.636 156.711 470.242 159.521 470.546 162.278 471.145 165.058 471.635 167.844 472.102 170.584 472.764 173.34 473.371 174.716 473.681 176.094 473.985 177.457 474.346 L181.539 475.452 185.622 476.559 189.666 477.792 193.697 479.066 C195.036 479.503 196.361 479.982 197.693 480.439 200.354 481.366 203.025 482.259 205.639 483.309 208.264 484.329 210.894 485.331 213.482 486.438 216.084 487.508 218.677 488.601 221.226 489.793 231.482 494.412 241.478 499.595 251.053 505.465 Z" fill="#acbed3" fill-opacity="1" stroke="none"/>
 <path id="Path-7" d="M132.109 351.82 C174.06 386.52 146.151 490.912 292.414 517.985 292.414 517.985 305.479 473.024 266.439 412.271 227.399 351.517 132.109 351.82 132.109 351.82 Z" fill="#6c83dc" fill-opacity="1" stroke="none"/>
 <path id="Path-8" d="M283.504 504.542 C275.599 491.338 267.46 478.439 258.724 465.977 249.954 453.546 240.685 441.509 230.764 430.033 220.852 418.555 210.312 407.629 199.078 397.431 187.795 387.284 175.831 377.9 162.775 369.754 177.12 375.39 190.351 383.821 202.482 393.406 214.657 402.995 225.754 413.909 235.874 425.617 245.978 437.342 255.123 449.887 263.12 463.102 271.147 476.293 278.119 490.125 283.504 504.542 Z" fill="#c8ddf5" fill-opacity="1" stroke="none"/>
 <path id="Path-9" d="M378.821 449.004 C373.569 455.241 368.81 465.579 365.856 467.221 362.901 468.862 357.92 469.432 353.212 484.584 348.506 499.734 372.27 497.661 372.27 497.661 372.27 497.661 382.431 491.825 386.535 477.725 L396.71 468.698 Z" fill="#ffa498" fill-opacity="1" stroke="none"/>
 <path id="Path-10" d="M360.438 496 C360.438 496 368.129 493.495 374.653 486.605 381.202 479.688 382.046 467.381 382.046 467.381 L385.182 473.242 391.456 466.536 394.481 466.244 396.71 468.698 386.534 477.726 C382.432 491.824 372.27 497.661 372.27 497.661 372.27 497.661 365.719 498.229 360.178 496.578 360.32 496.221 360.438 496 360.438 496 Z" fill="#c57e75" fill-opacity="1" stroke="none"/>
 <path id="Path-11" d="M414.449 394.739 C407.169 400.06 402.826 403.921 399.207 411.159 395.588 418.398 372.905 444.405 371.459 446.724 370.01 449.043 384.205 473.655 395.567 479.688 395.567 479.688 412.72 459.9 422.613 452.421 432.505 444.94 429.128 418.398 424.543 409.47 419.958 400.542 414.449 394.739 414.449 394.739 Z" fill="#dc466f" fill-opacity="1" stroke="none"/>
 <path id="Path-12" d="M414.183 442.63 L414.183 427.856 C414.183 427.856 416.109 427.086 417.611 432.071 418.211 434.066 418.165 436.164 417.898 437.969 L428.941 429.664 C429.398 438.962 427.905 448.42 422.613 452.422 412.719 459.9 395.567 479.687 395.567 479.687 392.635 478.131 389.517 475.334 386.526 472.007 393.51 465.053 406.761 451.628 414.183 442.63 Z" fill="#d12050" fill-opacity="1" stroke="none"/>
 <path id="Path-13" d="M343.619 491.824 C341.731 492.414 340.335 493.317 340.335 495.696 340.335 498.076 340.746 501.851 341.648 503.327 342.551 504.805 347.212 505.69 347.212 505.69 347.212 505.69 346.9 495.86 345.915 494.055 344.93 492.249 343.619 491.824 343.619 491.824 Z" fill="#ffa498" fill-opacity="1" stroke="none"/>
 <path id="Path-14" d="M341.647 503.328 C341.394 502.913 341.183 502.306 341.005 501.61 342.016 502.604 342.356 502.611 343.594 502.742 L347.133 503.846 C347.188 504.952 347.211 505.691 347.211 505.691 347.211 505.691 342.55 504.806 341.647 503.328" fill="#c57e75" fill-opacity="1" stroke="none"/>
 <path id="Path-15" d="M348.13 488.229 C345.832 488.476 343.534 490.199 343.534 492.578 343.534 494.958 342.715 501.606 343.534 502.672 344.356 503.738 348.377 506.775 349.771 507.021 351.167 507.267 353.536 506.857 353.212 506.118 352.89 505.38 348.13 488.229 348.13 488.229 Z" fill="#ffa498" fill-opacity="1" stroke="none"/>
 <path id="Path-16" d="M343.187 500.886 C344.928 502.852 349.383 502.675 349.383 502.675 349.383 502.675 351.341 504.766 351.583 505.438 351.728 505.844 352.53 506.378 352.639 506.792 351.904 507.072 350.646 507.176 349.772 507.022 348.403 506.78 344.52 503.862 343.595 502.742 L343.187 500.89 Z" fill="#c57e75" fill-opacity="1" stroke="none"/>
 <path id="Path-17" d="M356.74 484.303 C349.69 484.701 348.376 485.357 348.131 488.229 347.884 491.101 348.048 499.471 348.95 501.606 349.854 503.738 350.346 505.626 351.495 506.775 352.644 507.923 354.363 507.928 354.363 507.928 354.363 507.928 358.224 502.262 358.388 497.502 358.552 492.743 356.74 484.303 356.74 484.303 Z" fill="#ffa498" fill-opacity="1" stroke="none"/>
 <path id="Path-18" d="M352.685 503.213 C353.043 501.264 353.835 499.186 353.936 492.663 353.974 490.213 356.246 503.009 355.232 506.521 354.726 507.393 354.363 507.928 354.363 507.928 354.363 507.928 352.644 507.923 351.496 506.774 350.346 505.625 349.855 503.737 348.951 501.605 348.893 501.465 348.837 501.298 348.785 501.11 349.245 502.307 350.706 503.092 352.685 503.213 Z" fill="#c57e75" fill-opacity="1" stroke="none"/>
 <path id="Path-19" d="M372.175 498.733 C371.731 502.654 366.595 504.066 366.02 506.035 365.446 508.005 365.855 509.811 364.871 510.302 363.886 510.796 359.784 508.498 359.948 505.873 359.948 505.873 358.88 508.088 356.501 508.498 354.121 508.908 353.547 507.17 353.957 504.551 354.367 501.933 354.286 500.538 354.204 497.42 354.121 494.301 353.382 491.43 354.778 487.982 356.173 484.537 358.06 481.5 361.835 482.075 365.61 482.649 367.908 487.408 369.959 489.05 372.01 490.69 372.666 494.384 372.175 498.733 Z" fill="#ffa498" fill-opacity="1" stroke="none"/>
 <path id="Path-20" d="M359.948 505.872 C360.178 500.885 360.437 496.804 360.437 495.999 360.437 495.194 360.178 489.902 362.059 489.58 362.344 489.531 366.482 492.153 366.562 493.923 366.643 495.692 366.562 498.87 365.276 499.775 363.989 500.68 359.948 505.872 359.948 505.872 Z" fill="#c57e75" fill-opacity="1" stroke="none"/>
 <path id="Path-21" d="M530.953 405.369 C523.474 395.878 520.899 394.913 513.178 390.409 505.457 385.905 476.18 374.483 470.147 373.035 464.115 371.587 439.785 382.928 431.802 386.548 423.819 390.167 413.661 393.728 411.93 397.256 406.136 409.064 417.611 425.798 417.671 460.867 417.703 479.233 421.888 520.536 421.888 520.536 421.888 520.536 513.822 520.708 515.109 518.777 516.396 516.847 519.613 450.893 521.222 437.381 522.831 423.868 530.953 405.369 530.953 405.369 Z" fill="#dc466f" fill-opacity="1" stroke="none"/>
 <path id="Path-22" d="M412.267 415.744 C411.578 413.524 411.17 411.263 410.824 408.993 410.51 406.719 410.262 404.435 410.296 402.111 410.988 404.33 411.397 406.591 411.739 408.861 412.052 411.136 412.3 413.419 412.267 415.744 Z" fill="#d12050" fill-opacity="1" stroke="none"/>
 <path id="Path-23" d="M446.646 401.93 C443.094 400.603 434.679 402.911 433.141 403.446 431.602 403.981 434.045 397.406 434.95 396.592 435.854 395.777 437.303 393.881 440.078 394.739 442.853 395.597 445.185 398.773 445.587 399.819 445.989 400.864 446.646 401.93 446.646 401.93 Z" fill="#d12050" fill-opacity="1" stroke="none"/>
 <path id="Path-24" d="M476.241 407.419 C474.975 407.359 467.584 403.961 465.816 403.116 464.046 402.272 456.03 401.877 450.647 403.382 450.647 403.382 461.01 396.38 467.042 396.44 473.074 396.501 475.367 398.672 475.849 400.603 476.332 402.533 476.241 407.419 476.241 407.419 Z" fill="#d12050" fill-opacity="1" stroke="none"/>
 <path id="Path-25" d="M436.721 505.747 C437.708 504.782 497.747 506.713 498.954 500.439 500.16 494.166 500.991 482.755 500.991 482.755 493.762 486.617 483.269 485.009 483.269 485.009 490.267 482.724 500.401 471.242 500.883 467.864 502.371 457.457 496.81 428.766 496.81 428.766 L500.883 420.57 505.65 417.916 C505.65 417.916 514.687 422.416 522.414 430.695 521.893 432.987 521.476 435.245 521.222 437.381 519.705 450.121 516.759 509.464 515.349 517.83 496.752 518.515 463.042 519.75 440.485 520.524 429.556 520.551 421.888 520.536 421.888 520.536 421.888 520.536 421.747 515.104 421.418 507.313 427.711 506.945 436.109 506.345 436.721 505.747 Z" fill="#d12050" fill-opacity="1" stroke="none"/>
 <path id="Path-26" d="M448.913 403.679 C455.391 402.898 465.804 397.285 469.906 399.215 474.008 401.145 474.973 406.092 475.817 406.936 476.662 407.781 480.281 403.558 480.281 393.183 480.281 382.807 480.6 372.183 472.96 370.739 465.322 369.294 445.535 376.775 441.554 379.791 437.573 382.807 435.883 385.862 434.798 388.799 433.712 391.734 430.817 403.558 432.144 403.679 433.47 403.8 437.211 396.078 439.986 395.837 442.76 395.596 447.159 403.891 448.913 403.679 Z" fill="#dc466f" fill-opacity="1" stroke="none"/>
 <path id="Path-27" d="M445.228 394.39 C443.576 390.469 441.767 387.03 441.827 384.316 441.888 381.601 442.49 379.731 445.507 378.887 448.522 378.042 449.79 379.67 449.971 383.773 450.151 387.875 445.228 394.39 445.228 394.39 Z" fill="#d12050" fill-opacity="1" stroke="none"/>
 <path id="Path-28" d="M468.879 387.08 C475.185 381.36 475.899 374.965 475.307 373.638 474.714 372.311 472.11 371.346 472.11 371.346 472.11 371.346 471.084 375.508 471.688 376.534 472.29 377.559 468.879 387.08 468.879 387.08 Z" fill="#d12050" fill-opacity="1" stroke="none"/>
 <path id="Path-29" d="M458.84 400.909 C460.377 400.218 461.98 399.681 463.615 399.236 465.258 398.837 466.945 398.518 468.699 398.632 469.564 398.697 470.494 398.886 471.267 399.498 471.95 400.142 472.468 400.724 473.048 401.385 474.197 402.69 474.989 404.274 475.717 405.763 475.878 406.106 476.132 406.51 476.244 406.546 476.258 406.551 476.251 406.572 476.381 406.491 476.49 406.414 476.617 406.282 476.732 406.138 477.203 405.536 477.588 404.785 477.964 404.053 478.724 402.61 479.131 401.009 479.455 399.379 479.769 397.747 479.95 396.082 480.067 394.413 480.21 392.743 480.258 391.065 480.281 389.382 480.612 392.732 480.618 396.125 480.153 399.496 479.929 401.176 479.507 402.873 478.749 404.439 478.374 405.207 477.994 405.966 477.439 406.7 477.292 406.882 477.134 407.065 476.902 407.234 476.79 407.318 476.636 407.397 476.453 407.441 476.262 407.487 476.032 407.456 475.861 407.375 475.516 407.202 475.37 406.97 475.229 406.773 475.096 406.571 474.991 406.373 474.892 406.179 474.162 404.651 473.438 403.191 472.376 401.945 471.869 401.326 471.273 400.645 470.75 400.12 470.203 399.664 469.42 399.438 468.629 399.339 467.023 399.148 465.345 399.371 463.713 399.678 462.068 399.967 460.449 400.415 458.84 400.909 Z" fill="#d12050" fill-opacity="1" stroke="none"/>
 <path id="Path-30" d="M443.986 398.744 C443.286 398.125 442.591 397.507 441.833 396.993 441.459 396.736 441.075 396.49 440.68 396.321 440.48 396.245 440.288 396.186 440.108 396.162 440.028 396.171 439.943 396.163 439.88 396.184 439.821 396.222 439.786 396.207 439.672 396.292 438.116 397.251 436.906 398.569 435.878 400.077 435.355 400.805 434.897 401.638 434.281 402.393 433.972 402.767 433.645 403.13 433.228 403.453 433.011 403.603 432.791 403.778 432.402 403.824 432.216 403.856 431.955 403.775 431.798 403.635 431.64 403.492 431.561 403.327 431.515 403.188 431.345 402.616 431.4 402.141 431.445 401.657 431.504 401.181 431.588 400.715 431.696 400.257 431.927 399.343 432.182 398.446 432.51 397.569 432.385 398.495 432.219 399.41 432.143 400.332 432.091 400.789 432.056 401.246 432.049 401.696 432.047 402.134 432.056 402.615 432.188 402.928 432.217 403.007 432.262 403.049 432.277 403.06 432.3 403.058 432.277 403.068 432.323 403.054 432.401 403.046 432.583 402.942 432.73 402.814 433.037 402.553 433.327 402.211 433.592 401.853 434.136 401.152 434.572 400.344 435.118 399.551 435.667 398.776 436.268 398.025 436.965 397.356 437.662 396.689 438.468 396.117 439.302 395.676 439.379 395.623 439.573 395.553 439.731 395.508 439.89 395.477 440.046 395.494 440.195 395.503 440.475 395.56 440.718 395.66 440.943 395.779 441.381 396.028 441.755 396.327 442.113 396.642 442.803 397.294 443.439 397.984 443.986 398.744 Z" fill="#d12050" fill-opacity="1" stroke="none"/>
 <path id="Path-31" d="M444.342 370.822 C444.357 373.371 444.459 375.913 444.723 378.449 445.374 384.67 444.737 392.875 445.228 394.389 445.777 396.078 449.034 402.11 449.034 402.11 449.034 402.11 454.826 399.456 457.239 396.561 459.651 393.666 462.788 393.518 467.011 389.248 471.234 384.978 474.104 378.196 473.164 372.552 473.044 371.828 472.303 364.602 472.138 357.122 471.975 349.642 464.115 343.958 456.635 343.958 449.155 343.958 444.677 355.058 444.443 362.538 444.347 365.607 444.329 368.491 444.342 370.822 Z" fill="#ffa498" fill-opacity="1" stroke="none"/>
 <path id="Path-32" d="M472.138 357.122 C472.303 364.603 473.043 371.829 473.164 372.552 473.455 374.298 473.38 376.152 473.014 378.007 471.359 378.312 450.056 378.825 444.536 376.256 444.411 374.448 444.353 372.637 444.342 370.823 444.329 368.491 444.347 365.608 444.443 362.539 444.543 359.369 445.407 355.549 446.937 352.198 L464.461 345.987 C468.763 348.283 472.034 352.329 472.138 357.122 Z" fill="#c57e75" fill-opacity="1" stroke="none"/>
 <path id="Path-33" d="M431.219 325.975 C419.9 325.975 415.665 334.67 415.665 341.185 415.665 347.034 417.539 356.396 431.219 356.396 438.059 356.396 442.69 349.586 442.69 341.185 442.69 332.785 438.059 325.975 431.219 325.975 Z" fill="#524787" fill-opacity="1" stroke="none"/>
 <path id="Path-34" d="M430.72 329.7 C422.173 329.7 418.975 336.265 418.975 341.186 418.975 345.601 420.389 352.672 430.72 352.672 435.886 352.672 439.382 347.53 439.382 341.186 439.382 334.842 435.886 329.7 430.72 329.7 Z" fill="#38295c" fill-opacity="1" stroke="none"/>
 <path id="Path-35" d="M416.94 331.109 C417.608 335.075 419.572 336.591 420.449 341.937 421.325 347.284 418.987 355.053 422.474 361.82 425.962 368.587 431.601 377.484 434.859 377.86 438.117 378.236 464.211 373.827 473.016 356.319 475.543 351.294 480.945 331.586 476.323 319.552 471.7 307.519 464.181 296.492 446.805 296.158 429.429 295.823 413.396 310.09 416.94 331.109 Z" fill="#ffa498" fill-opacity="1" stroke="none"/>
 <path id="Path-36" d="M431.472 352.788 C432.401 352.809 433.419 352.456 433.878 351.847 434.279 351.314 434.446 350.612 434.327 349.956 432.969 351.075 431.303 351.267 429.632 350.976 429.425 352.223 430.387 352.762 431.472 352.788 Z" fill="#c57e75" fill-opacity="1" stroke="none"/>
 <path id="Path-37" d="M462.211 331.109 C461.55 326.984 458.793 324.603 458.793 324.603 458.793 324.603 452.152 321.846 447.014 321.345 441.876 320.844 436.613 319.34 436.613 319.34 436.613 319.34 438.243 323.466 440.999 325.224 440.999 325.224 428.718 324.603 424.834 320.969 424.834 320.969 425.586 323.965 426.338 325.975 426.338 325.975 420.323 325.354 418.443 322.974 418.443 322.974 416.94 328.217 416.94 331.109 416.94 331.109 409.713 321.219 411.551 313.367 413.389 305.514 415.895 302.507 415.895 302.507 415.895 302.507 410.716 303.007 407.875 302.507 407.875 302.507 414.559 296.659 419.571 292.817 424.583 288.973 439.62 288.806 439.62 288.806 439.62 288.806 438.451 284.796 439.787 278.447 439.787 278.447 446.22 287.887 453.029 290.769 459.837 293.651 458.92 293.407 466.139 295.228 473.358 297.05 480.221 301.671 483.103 305.556 485.985 309.44 489.118 313.45 490.998 314.077 490.998 314.077 486.486 313.45 484.231 311.57 484.231 311.57 487.992 320.113 483.021 331.109 478.05 342.105 465.594 338.851 463.179 336.424 460.764 333.996 462.211 331.109 462.211 331.109 Z" fill="#4375f1" fill-opacity="1" stroke="none"/>
 <path id="Path-38" d="M463.179 336.424 C460.764 333.997 462.211 331.109 462.211 331.109 461.812 328.614 460.646 326.762 459.787 325.684 461.594 314.726 460.857 303.352 457.647 292.72 459.523 293.482 460.637 293.824 463.352 294.522 466.686 299.536 469.179 305.178 470.896 310.893 473.082 318.171 474.14 326.032 472.101 333.353 471.579 335.229 470.816 337.06 469.852 338.774 466.761 338.515 464.153 337.404 463.179 336.424 Z" fill="#9a4234" fill-opacity="1" stroke="none"/>
 <path id="Path-39" d="M466.581 327.026 C466.581 327.026 467.44 299.542 453.029 290.77 453.029 290.77 464.181 289.517 470.572 300.67 476.963 311.822 476.531 321.388 476.37 326.749 476.209 332.109 466.581 327.026 466.581 327.026 Z" fill="#524787" fill-opacity="1" stroke="none"/>
 <path id="Path-40" d="M470.974 325.975 C482.293 325.975 486.529 334.67 486.529 341.185 486.529 347.034 484.654 356.396 470.974 356.396 464.134 356.396 459.504 349.586 459.504 341.185 459.504 332.785 464.134 325.975 470.974 325.975 Z" fill="#524787" fill-opacity="1" stroke="none"/>
 <path id="Path-41" d="M464.871 341.187 C464.871 333.729 469.794 327.683 475.867 327.683 481.939 327.683 486.528 333.729 486.528 341.187 486.528 348.644 481.939 354.69 475.867 354.69 469.794 354.69 464.871 348.644 464.871 341.187 Z" fill="#c22373" fill-opacity="1" stroke="none"/>
 <path id="Path-42" d="M469.836 341.186 C469.836 336.11 473.185 331.997 477.318 331.997 481.451 331.997 484.801 336.11 484.801 341.186 484.801 346.261 481.451 350.375 477.318 350.375 473.185 350.375 469.836 346.261 469.836 341.186 Z" fill="#d67aa8" fill-opacity="1" stroke="none"/>
 <path id="Path-43" d="M442.284 356.396 C439.226 358.08 429.234 358.642 428.555 358.548 427.875 358.455 429.27 366.041 431.717 366.321 434.165 366.603 439.058 365.948 441.098 363.982 443.136 362.018 442.284 356.396 442.284 356.396 Z" fill="#c57e75" fill-opacity="1" stroke="none"/>
 <path id="Path-44" d="M440.935 338.262 C440.935 336.878 441.618 335.756 442.46 335.756 443.303 335.756 443.985 336.878 443.985 338.262 443.985 339.646 443.303 340.768 442.46 340.768 441.618 340.768 440.935 339.646 440.935 338.262 Z" fill="#471052" fill-opacity="1" stroke="none"/>
 <path id="Path-45" d="M423.491 339.432 C423.491 338.047 424.077 336.926 424.802 336.926 425.525 336.926 426.112 338.047 426.112 339.432 426.112 340.816 425.525 341.938 424.802 341.938 424.077 341.938 423.491 340.816 423.491 339.432 Z" fill="#471052" fill-opacity="1" stroke="none"/>
 <path id="Path-46" d="M449.472 328.492 C448.431 327.918 447.308 327.522 446.158 327.192 445.002 326.881 443.802 326.699 442.586 326.656 441.376 326.596 440.096 326.561 438.925 327.014 437.75 327.419 436.685 328.157 435.9 329.129 L435.989 329.279 C437.249 329.143 438.288 328.834 439.386 328.688 440.459 328.528 441.5 328.136 442.621 328.045 444.839 327.857 447.165 328.032 449.402 328.65 Z" fill="#471052" fill-opacity="1" stroke="none"/>
 <path id="Path-47" d="M419.081 331.73 C419.625 331.519 420.197 331.387 420.766 331.322 421.334 331.245 421.902 331.217 422.464 331.211 423.03 331.202 423.594 331.405 424.145 331.27 424.424 331.207 424.709 331.153 424.999 331.032 425.292 330.933 425.59 330.803 425.911 330.579 L425.929 330.406 C425.383 329.874 424.766 329.646 424.14 329.533 423.507 329.414 422.88 329.668 422.272 329.834 421.661 329.994 421.063 330.207 420.499 330.495 419.947 330.801 419.405 331.122 418.975 331.594 Z" fill="#471052" fill-opacity="1" stroke="none"/>
 <path id="Path-48" d="M436.721 511.694 C436.728 512.082 436.185 512.643 434.858 512.643 L393.013 512.643 C388.188 512.643 387.061 510.735 388.509 508.322 389.957 505.908 396.07 500.6 411.191 496.9 426.312 493.2 434.263 501.852 436.721 505.747 438.524 508.605 436.721 511.694 436.721 511.694 Z" fill="#524787" fill-opacity="1" stroke="none"/>
 <path id="Path-49" d="M388.153 509.046 C388.986 511.813 420.915 510.371 420.915 510.371 420.915 510.371 417.677 505.997 414.098 505.872 410.519 505.747 408.778 506.991 403.979 507.817 399.178 508.642 402.737 505.864 402.737 505.864 402.737 505.864 399.346 505.112 397.965 504.042 397.965 504.042 405.875 501.706 409.193 501.162 412.509 500.62 420.955 500.981 422.041 501.162 422.809 501.29 426.706 499.027 431.415 500.164 434.045 502.085 435.784 504.261 436.721 505.747 438.524 508.604 436.721 511.693 436.721 511.693 436.728 512.081 436.185 512.643 434.859 512.643 L393.013 512.643 C388.684 512.643 387.339 511.105 388.153 509.046 Z" fill="#38295c" fill-opacity="1" stroke="none"/>
 <path id="Path-50" d="M524.721 485.531 C524.721 485.531 494.964 490.133 478.834 493.019 463.555 495.753 450.361 496.941 446.622 496.215 442.881 495.492 430.092 490.787 425.99 489.098 421.888 487.409 413.684 486.443 409.462 487.771 405.239 489.098 401.78 490.546 400.091 490.546 398.403 490.546 398.724 493.281 400.976 493.843 403.229 494.406 405.239 494.327 405.239 494.327 405.239 494.327 397.598 498.509 396.23 498.911 394.864 499.313 396.484 501.805 398.333 501.645 398.333 501.645 396.714 502.61 397.276 503.575 397.84 504.541 401.86 504.541 401.86 504.541 401.86 504.541 396.955 506.954 401.056 507.919 405.159 508.883 410.065 504.299 412.076 503.897 414.087 503.495 418.751 503.737 421.004 505.426 423.256 507.114 432.908 514.917 446.098 510.252 446.098 510.252 535.631 513.879 544.558 513.879 553.486 513.879 558.878 505.989 556.015 490.787 553.153 475.585 547.603 464.245 547.603 464.245 L516.717 466.416 Z" fill="#ffa498" fill-opacity="1" stroke="none"/>
 <path id="Path-51" d="M412.289 491.909 C413.077 491.723 413.705 491.615 414.099 491.59 414.099 491.59 413.335 491.723 412.289 491.909 Z" fill="#c57e75" fill-opacity="1" stroke="none"/>
 <path id="Path-52" d="M405.239 494.326 C405.239 494.326 403.228 494.406 400.976 493.844 400.343 493.686 399.869 493.352 399.542 492.96 402.046 494.067 405.13 493.361 406.818 492.959 407.883 492.704 410.499 492.228 412.288 491.91 410.496 492.33 407.872 493.153 405.239 494.326 Z" fill="#c57e75" fill-opacity="1" stroke="none"/>
 <path id="Path-53" d="M405.633 497.945 C405.826 497.857 405.99 497.789 406.095 497.756 406.095 497.756 405.921 497.827 405.633 497.945 Z" fill="#c57e75" fill-opacity="1" stroke="none"/>
 <path id="Path-54" d="M396.246 500.702 C396.275 500.728 397.158 501.507 399.017 500.697 400.566 500.025 404.324 498.482 405.633 497.946 403.986 498.693 399.522 501.213 398.333 501.645 397.511 501.717 396.736 501.263 396.246 500.702 Z" fill="#c57e75" fill-opacity="1" stroke="none"/>
 <path id="Path-55" d="M400.867 503.656 C402.234 503.253 405.09 501.523 406.839 500.697 408.588 499.87 410.821 499.775 410.821 499.775 410.821 499.775 410.157 499.835 408.407 500.697 406.659 501.559 401.861 504.54 401.861 504.54 401.861 504.54 399.281 504.539 397.965 504.042 397.979 504.042 399.505 504.056 400.867 503.656" fill="#c57e75" fill-opacity="1" stroke="none"/>
 <path id="Path-56" d="M426.324 505.626 C428.857 507.195 436.337 509.246 440.801 508.402 445.265 507.557 446.231 503.817 446.231 503.817 L447.478 507.839 C447.478 507.839 509.571 509.609 522.198 509.04 534.682 508.48 554.151 508.195 556.694 500.698 555.996 509.401 551.281 513.879 544.558 513.879 535.63 513.879 446.098 510.252 446.098 510.252 432.908 514.917 423.256 507.114 421.004 505.426 419.132 504.021 415.596 503.619 413.299 503.755 L413.3 503.755 C416.726 502.555 423.79 504.058 426.324 505.626 Z" fill="#c57e75" fill-opacity="1" stroke="none"/>
 <path id="Path-57" d="M524.721 485.531 C524.721 485.531 536.354 483.95 538.686 483.709 L536.917 476.47 522.198 479.446 Z" fill="#c57e75" fill-opacity="1" stroke="none"/>
 <path id="Path-58" d="M555.811 465.268 C556.249 466.402 555.971 467.675 555.102 468.523 549.696 473.803 542.597 480.994 535.298 482.1 527.335 483.306 514.063 483.789 513.339 482.1 512.615 480.411 509.962 458.936 505.136 448.078 500.31 437.22 497.173 431.67 495.966 425.396 494.76 419.122 505.618 404.403 510.444 403.196 515.27 401.99 526.37 401.266 530.954 405.369 535.539 409.47 538.917 425.155 544.225 436.979 548.509 446.519 553.892 460.301 555.811 465.268 Z" fill="#dc466f" fill-opacity="1" stroke="none"/>
 <path id="Path-59" d="M525.945 402.986 C524.466 402.815 522.99 402.693 521.509 402.66 520.033 402.601 518.555 402.606 517.085 402.693 515.616 402.781 514.153 402.929 512.714 403.188 511.989 403.303 511.28 403.471 510.567 403.63 509.906 403.872 509.222 404.047 508.612 404.429 507.964 404.72 507.4 405.178 506.804 405.575 506.263 406.053 505.683 406.487 505.188 407.023 504.127 408.02 503.235 409.19 502.328 410.345 501.445 411.52 500.643 412.761 499.88 414.028 499.095 415.284 498.398 416.591 497.719 417.915 498.716 415.107 500.095 412.438 501.748 409.935 502.589 408.693 503.501 407.487 504.567 406.407 505.068 405.838 505.682 405.373 506.249 404.864 506.881 404.43 507.475 403.94 508.184 403.611 508.848 403.209 509.615 403.006 510.351 402.754 511.09 402.599 511.825 402.423 512.573 402.327 514.064 402.113 515.564 401.972 517.064 401.986 520.059 401.978 523.052 402.269 525.945 402.986 Z" fill="#d12050" fill-opacity="1" stroke="none"/>
 <path id="Path-60" d="M549.786 469.714 C549.747 465.858 541.605 430.513 534.414 410.813 537.471 417.545 540.328 428.299 544.225 436.978 548.509 446.519 553.892 460.301 555.812 465.267 556.249 466.401 555.971 467.675 555.102 468.524 553.032 470.545 550.71 472.847 548.228 474.98 548.414 474.799 549.823 473.314 549.786 469.714 Z" fill="#d12050" fill-opacity="1" stroke="none"/>
 <path id="Path-61" d="M161.657 429.896 C161.51 431.085 161.758 432.283 162.336 433.334 164.442 437.163 165.509 441.563 165.371 445.932 165.28 448.811 164.688 451.756 165.473 454.528 166.825 459.309 171.872 462.266 173.496 466.963 174.936 471.126 173.597 476.362 176.589 479.595 177.331 480.396 178.482 481.009 179.497 480.604 180.005 480.4 180.386 479.975 180.749 479.563 184.179 475.667 187.852 470.931 186.794 465.849 185.8 461.074 180.879 457.848 179.947 453.06 179.185 449.149 181.185 444.637 178.943 441.342 178.325 440.432 177.44 439.737 176.764 438.87 174.099 435.448 175.086 429.993 172.015 426.93 171.014 425.931 169.761 425.364 168.396 425.072 165.176 424.384 162.061 426.627 161.657 429.895 Z" fill="#d35e5a" fill-opacity="1" stroke="none"/>
 <path id="Path-62" d="M181.168 490.562 C181.374 488.016 181.462 485.468 181.557 482.914 181.44 480.367 181.305 477.82 181.087 475.274 180.869 472.729 180.583 470.184 180.132 467.654 179.675 465.14 179.07 462.571 178.013 460.207 176.165 455.536 174.672 450.651 173.163 445.81 L170.974 438.513 C170.075 436.129 169.197 433.74 168.349 431.334 168.722 433.866 169.301 436.35 169.808 438.854 L172.002 446.167 C173.52 451.033 174.999 455.888 176.893 460.675 177.915 462.964 178.482 465.386 178.936 467.866 179.377 470.343 179.66 472.857 179.876 475.377 180.089 477.899 180.236 480.43 180.334 482.964 Z" fill="#ffa8a5" fill-opacity="1" stroke="none"/>
 <path id="Path-63" d="M167.722 438.939 C168.142 439.575 168.683 440.052 169.264 440.473 169.563 440.673 169.913 440.804 170.238 440.968 170.568 441.126 170.856 441.339 171.124 441.58 L171.24 441.686 171.343 441.528 C171.586 441.155 171.881 440.811 172.114 440.434 172.338 440.054 172.574 439.68 172.773 439.287 173.162 438.496 173.451 437.655 173.598 436.745 L173.526 436.709 C172.889 437.377 172.395 438.114 171.999 438.902 171.806 439.299 171.651 439.713 171.484 440.121 171.324 440.535 171.228 440.979 171.079 441.396 L171.299 441.344 C170.988 441.159 170.699 440.947 170.451 440.678 170.199 440.417 169.972 440.121 169.693 439.896 169.12 439.465 168.505 439.09 167.771 438.876 Z" fill="#ffa8a5" fill-opacity="1" stroke="none"/>
 <path id="Path-64" d="M168.34 447.647 C168.778 448.008 169.229 448.397 169.702 448.724 170.174 449.057 170.653 449.38 171.172 449.638 171.695 449.891 172.252 450.089 172.755 450.375 173.263 450.655 173.725 451.008 174.176 451.375 L174.335 451.504 174.496 451.293 C175.194 450.378 175.792 449.406 176.355 448.416 176.887 447.405 177.359 446.363 177.698 445.245 L177.628 445.205 C176.846 446.074 176.196 447.016 175.605 447.991 175.047 448.985 174.522 449.999 174.099 451.069 L174.419 450.987 C173.89 450.742 173.37 450.482 172.893 450.153 172.413 449.829 171.985 449.421 171.523 449.067 171.055 448.722 170.545 448.443 170.025 448.183 169.497 447.931 168.974 447.685 168.358 447.569 Z" fill="#ffa8a5" fill-opacity="1" stroke="none"/>
 <path id="Path-65" d="M171.435 459.139 C171.914 459.623 172.449 459.979 173.001 460.301 173.545 460.636 174.144 460.859 174.781 461.009 175.416 461.163 175.991 461.443 176.503 461.835 177.015 462.223 177.515 462.651 178.026 462.986 L178.412 463.239 178.699 462.809 C179.122 462.174 179.507 461.519 179.805 460.816 180.106 460.114 180.371 459.393 180.52 458.608 L180.431 458.559 C179.847 459.105 179.38 459.715 178.948 460.344 178.514 460.973 178.166 461.648 177.858 462.346 L178.531 462.168 C177.947 461.847 177.326 461.661 176.712 461.446 176.097 461.235 175.537 460.93 175.032 460.51 174.53 460.083 173.98 459.747 173.375 459.526 172.776 459.293 172.156 459.104 171.477 459.048 Z" fill="#ffa8a5" fill-opacity="1" stroke="none"/>
 <path id="Path-66" d="M185.219 491.061 C187.21 490.733 194.672 488.346 194.152 486.397 191.914 478.033 189.677 468.544 197.423 464.453 201.152 462.485 205.831 461.484 207.953 457.842 210.14 454.09 208.531 449.322 206.568 445.448 204.606 441.574 202.244 437.428 203.085 433.167 203.965 428.707 208.184 425.415 208.859 420.918 209.78 414.778 203.818 409.831 198.091 407.434 196.143 406.618 194.001 405.921 191.948 406.418 190.481 406.77 189.21 407.711 188.205 408.836 184.182 413.335 184.346 420.122 185.264 426.087 186.182 432.052 187.587 438.351 185.34 443.953 183.745 447.931 180.328 451.673 181.243 455.861 181.61 457.539 182.656 459.002 183.055 460.672 184.13 465.174 180.39 469.23 178.675 473.529 176.464 479.077 177.982 485.857 182.176 490.066 182.973 490.866 184.103 491.243 185.219 491.061 Z" fill="#ff7571" fill-opacity="1" stroke="none"/>
 <path id="Path-67" d="M184.515 491.154 C184.976 487.842 185.437 484.544 186.026 481.269 186.167 480.449 186.339 479.634 186.471 478.816 186.595 477.996 186.669 477.169 186.804 476.351 187.051 474.712 187.327 473.079 187.64 471.455 188.272 468.21 189.028 464.98 190.136 461.908 190.693 460.378 191.353 458.881 192.224 457.591 192.657 456.948 193.168 456.377 193.734 455.993 194.479 455.503 195.191 454.872 195.747 454.121 196.895 452.6 197.24 450.668 197.199 448.927 197.161 447.162 196.826 445.477 196.454 443.831 195.687 440.546 194.721 437.374 194.184 434.143 193.639 430.928 193.533 427.635 194.382 424.552 194.643 423.799 194.849 423.033 195.096 422.267 195.349 421.504 195.678 420.763 196.047 420.036 196.791 418.585 197.76 417.232 198.835 415.947 197.518 416.98 196.297 418.174 195.278 419.554 194.767 420.241 194.288 420.963 193.88 421.73 193.459 422.49 193.102 423.297 192.917 424.15 191.988 427.525 192.12 431.059 192.686 434.393 193.245 437.746 194.227 440.968 194.974 444.171 195.338 445.772 195.647 447.38 195.68 448.952 195.714 450.518 195.411 452.048 194.525 453.218 194.087 453.805 193.539 454.303 192.893 454.728 192.078 455.285 191.473 455.996 190.974 456.728 189.979 458.206 189.295 459.79 188.71 461.386 187.555 464.589 186.792 467.873 186.148 471.167 185.831 472.814 185.552 474.468 185.302 476.125 185.188 476.956 185.033 477.779 184.933 478.611 184.848 479.445 184.811 480.284 184.758 481.12 184.577 484.467 184.453 487.81 184.515 491.154 Z" fill="#ffa8a5" fill-opacity="1" stroke="none"/>
 <path id="Path-68" d="M197.734 425.869 C197.162 426.068 196.681 426.403 196.236 426.758 195.795 427.121 195.374 427.505 195.063 427.991 194.749 428.473 194.469 428.982 194.066 429.379 193.679 429.789 193.211 430.123 192.763 430.483 L193.353 430.52 C193.154 430.091 192.908 429.69 192.684 429.278 192.451 428.872 192.218 428.466 191.944 428.088 191.685 427.7 191.389 427.336 191.109 426.964 190.826 426.591 190.507 426.247 190.25 425.852 L190.15 425.869 C190.129 426.391 190.286 426.875 190.446 427.331 190.621 427.785 190.816 428.226 191.051 428.641 191.271 429.066 191.55 429.453 191.832 429.835 192.123 430.213 192.4 430.596 192.734 430.946 L193.103 431.334 193.324 430.983 C193.626 430.504 193.917 430.006 194.294 429.589 194.655 429.157 195.146 428.846 195.61 428.514 196.077 428.185 196.445 427.765 196.806 427.339 197.164 426.905 197.498 426.46 197.798 425.947 Z" fill="#ffa8a5" fill-opacity="1" stroke="none"/>
 <path id="Path-69" d="M190.499 438.533 C190.735 439.102 191.045 439.622 191.389 440.109 191.742 440.59 192.109 441.059 192.531 441.478 192.961 441.888 193.455 442.238 193.917 442.615 194.369 443.001 194.768 443.435 195.131 443.909 L195.246 444.06 195.409 443.931 C196.011 443.451 196.49 443.014 196.965 442.503 197.415 441.989 197.893 441.502 198.313 440.967 198.735 440.436 199.129 439.885 199.503 439.318 199.881 438.753 200.22 438.162 200.614 437.611 L200.556 437.526 C199.896 437.839 199.381 438.322 198.87 438.783 198.368 439.257 197.902 439.76 197.47 440.287 197.034 440.812 196.664 441.387 196.259 441.932 195.863 442.465 195.53 443.129 195.155 443.595 L195.433 443.617 C194.975 443.241 194.561 442.818 194.207 442.343 193.86 441.859 193.55 441.344 193.186 440.881 192.812 440.425 192.387 440.017 191.964 439.607 191.534 439.204 191.077 438.825 190.578 438.471 Z" fill="#ffa8a5" fill-opacity="1" stroke="none"/>
 <path id="Path-70" d="M203.807 448.309 C203.179 449.047 202.527 449.727 201.861 450.375 201.192 451.026 200.475 451.595 199.777 452.22 199.065 452.826 198.258 453.367 197.345 453.634 196.438 453.92 195.476 453.956 194.549 453.946 L194.964 454.238 C194.8 453.456 194.558 452.719 194.302 451.975 194.05 451.231 193.728 450.508 193.34 449.819 192.956 449.127 192.499 448.466 191.961 447.869 191.413 447.289 190.78 446.744 190.024 446.473 L189.973 446.56 C190.545 447.079 190.987 447.677 191.371 448.317 191.761 448.95 192.091 449.621 192.416 450.295 L193.347 452.351 C193.653 453.04 193.923 453.757 194.191 454.454 L194.32 454.791 194.606 454.747 C195.594 454.591 196.531 454.257 197.446 453.935 198.351 453.582 199.281 453.272 200.171 452.816 201.071 452.376 201.828 451.694 202.464 450.934 203.097 450.173 203.615 449.307 203.898 448.354 Z" fill="#ffa8a5" fill-opacity="1" stroke="none"/>
 <path id="Path-71" d="M185.81 455.791 C185.505 456.524 185.401 457.322 185.421 458.113 185.454 458.902 185.579 459.699 185.855 460.443 186.146 461.183 186.573 461.862 187.05 462.477 L188.443 464.328 188.542 464.46 188.703 464.346 C189.456 463.81 190.314 463.404 191.13 462.978 191.946 462.54 192.793 462.165 193.639 461.805 194.484 461.44 195.328 461.072 196.196 460.745 197.057 460.392 197.943 460.111 198.842 459.772 L198.827 459.672 C196.908 459.63 194.97 460.038 193.205 460.815 192.32 461.201 191.487 461.697 190.681 462.22 189.878 462.756 189.162 463.401 188.461 464.066 L188.721 464.084 C188.205 463.541 187.735 462.939 187.434 462.249 187.101 461.575 186.935 460.842 186.706 460.155 186.262 458.769 185.979 457.342 185.909 455.814 Z" fill="#ffa8a5" fill-opacity="1" stroke="none"/>
 <path id="Path-72" d="M171.688 512.642 L192.992 512.642 C194.969 512.642 196.65 510.933 196.947 508.619 L200.32 482.413 C200.69 479.546 198.814 476.964 196.364 476.964 L168.315 476.964 C165.866 476.964 163.99 479.546 164.36 482.413 L167.732 508.619 C168.03 510.933 169.711 512.642 171.688 512.642 Z" fill="#524787" fill-opacity="1" stroke="none"/>
 <path id="Path-73" d="M168.315 476.965 L182.655 476.965 C180.204 476.965 178.33 479.547 178.698 482.413 L182.071 508.621 C182.368 510.935 184.05 512.643 186.027 512.643 L171.688 512.643 C169.711 512.643 168.03 510.935 167.732 508.621 L164.36 482.413 C163.99 479.547 165.866 476.965 168.315 476.965 Z" fill="#38295c" fill-opacity="1" stroke="none"/>
 <path id="Path-74" d="M362.523 505.445 L273.422 505.445 C272.525 505.445 271.797 506.172 271.797 507.07 L271.797 511.018 C271.797 511.915 272.525 512.642 273.422 512.642 L362.523 512.642 Z" fill="#3a4278" fill-opacity="1" stroke="none"/>
 <path id="Path-75" d="M385.453 510.41 L385.453 512.014 C385.453 512.361 385.172 512.642 384.825 512.642 L362.38 512.642 C361.682 512.642 361.116 512.077 361.116 511.378 L361.116 506.702 C361.116 505.948 361.773 505.36 362.523 505.445 L384.895 509.786 C385.213 509.822 385.453 510.09 385.453 510.41 Z" fill="#524787" fill-opacity="1" stroke="none"/>
 <path id="Path-76" d="M206.81 354.005 L373.339 354.005 C376.708 354.005 379.714 356.119 380.856 359.289 L417.276 460.429 C418.798 465.645 414.982 469.553 408.85 470.214 407.909 470.315 403.436 468.304 396.412 465 L247.534 465 C244.165 465 241.159 462.887 240.016 459.717 L207.117 368.353 C201.555 365.45 198.384 363.791 198.384 363.791 198.384 363.791 196.324 354.005 206.81 354.005 Z" fill="#636a98" fill-opacity="1" stroke="none"/>
 <path id="Path-77" d="M368.125 359.219 L201.596 359.219 C199.232 359.219 197.582 361.565 198.383 363.79 L234.803 464.93 C235.945 468.1 238.952 470.213 242.321 470.213 L408.849 470.213 C411.216 470.213 412.864 467.867 412.063 465.641 L375.644 364.502 C374.501 361.332 371.494 359.219 368.125 359.219 Z" fill="#838bc0" fill-opacity="1" stroke="none"/>
 <path id="Path-78" d="M330.53 470.214 L323.138 442.797 295.121 470.214 Z" fill="#261b41" fill-opacity="1" stroke="none"/>
 <path id="Path-79" d="M368.248 453.384 L366.107 447.436 368.798 447.436 370.939 453.384 Z" fill="#261b41" fill-opacity="1" stroke="none"/>
 <path id="Path-80" d="M362.579 453.384 L360.438 447.436 363.13 447.436 365.271 453.384 Z" fill="#261b41" fill-opacity="1" stroke="none"/>
 <path id="Path-81" d="M356.911 453.384 L354.77 447.436 357.461 447.436 359.603 453.384 Z" fill="#261b41" fill-opacity="1" stroke="none"/>
 <path id="Path-82" d="M351.243 453.384 L349.102 447.436 351.793 447.436 353.934 453.384 Z" fill="#261b41" fill-opacity="1" stroke="none"/>
 <path id="Path-83" d="M270.729 453.384 L268.588 447.436 271.28 447.436 273.422 453.384 Z" fill="#261b41" fill-opacity="1" stroke="none"/>
 <path id="Path-84" d="M265.061 453.384 L262.921 447.436 265.612 447.436 267.753 453.384 Z" fill="#261b41" fill-opacity="1" stroke="none"/>
 <path id="Path-85" d="M259.393 453.384 L257.251 447.436 259.943 447.436 262.085 453.384 Z" fill="#261b41" fill-opacity="1" stroke="none"/>
 <path id="Path-86" d="M253.724 453.384 L251.583 447.436 254.275 447.436 256.416 453.384 Z" fill="#261b41" fill-opacity="1" stroke="none"/>
 <path id="Path-87" d="M274.296 502.868 C275.939 498.144 295.867 433.841 295.867 433.841 L321.447 433.841 323.137 442.796 C323.137 442.796 305.986 498.144 304.343 502.868 304.217 503.228 304.098 503.59 303.986 503.952 L303.988 503.952 C302.485 508.572 306.451 508.552 310.916 508.552 L356.03 508.552 356.03 512.642 310.916 512.642 280.871 512.642 C271.831 512.642 272.653 507.592 274.296 502.868 Z" fill="#636a98" fill-opacity="1" stroke="none"/>
 <path id="Path-88" d="M321.448 433.841 C321.448 433.841 301.52 498.144 299.877 502.868 298.233 507.592 297.412 512.642 306.451 512.642 L276.404 512.642 C267.365 512.642 268.187 507.592 269.831 502.868 271.474 498.144 291.401 433.841 291.401 433.841 Z" fill="#838bc0" fill-opacity="1" stroke="none"/>
 <path id="Path-89" d="M315.184 433.84 C313.202 433.749 311.22 433.705 309.238 433.639 307.257 433.571 305.275 433.556 303.293 433.513 301.311 433.481 299.329 433.424 297.347 433.423 L291.402 433.386 291.07 433.384 290.967 433.705 C290.139 436.295 289.322 438.889 288.543 441.494 L286.173 449.298 C284.647 454.52 283.119 459.738 281.726 465 283.556 459.874 285.253 454.707 286.954 449.541 L289.422 441.766 C290.256 439.178 291.052 436.579 291.836 433.975 L291.402 434.295 297.347 434.258 C299.329 434.258 301.311 434.201 303.293 434.168 305.275 434.125 307.257 434.11 309.238 434.042 311.22 433.977 313.202 433.932 315.184 433.84 Z" fill="#8475d5" fill-opacity="1" stroke="none"/>
 <path id="Path-90" d="M140.916 528.429 L581.982 528.429 C586.341 528.429 589.875 524.895 589.875 520.535 589.875 516.176 586.341 512.643 581.982 512.643 L140.916 512.643 C136.556 512.643 133.023 516.176 133.023 520.535 133.023 524.895 136.556 528.429 140.916 528.429 Z" fill="#a14f58" fill-opacity="1" stroke="none"/>
 <path id="Path-91" d="M140.916 528.429 L581.982 528.429 C586.341 528.429 589.875 524.895 589.875 520.535 L133.023 520.535 C133.023 524.895 136.556 528.429 140.916 528.429 Z" fill="#713349" fill-opacity="1" stroke="none"/>
 <path id="Path-92" d="M232.88 273.79 C232.88 310.456 203.157 340.18 166.49 340.18 129.824 340.18 100.1 310.456 100.1 273.79 100.1 237.124 129.824 207.4 166.49 207.4 203.157 207.4 232.88 237.124 232.88 273.79 Z" fill="#aebaea" fill-opacity="1" stroke="none"/>
 <path id="Path-93" d="M261.079 260.81 C261.079 282.133 278.364 299.418 299.686 299.418 321.008 299.418 338.293 282.133 338.293 260.81 338.293 239.488 321.008 222.203 299.686 222.203 278.364 222.203 261.079 239.488 261.079 260.81 Z" fill="#e6b851" fill-opacity="1" stroke="none"/>
 <path id="Path-94" d="M280.64 275.924 L318.733 275.924 C320.481 275.924 321.898 274.506 321.898 272.758 L321.898 248.863 C321.898 247.114 320.481 245.697 318.733 245.697 L280.64 245.697 C278.892 245.697 277.474 247.114 277.474 248.863 L277.474 272.758 C277.474 274.506 278.892 275.924 280.64 275.924 Z" fill="#6c83dc" fill-opacity="1" stroke="none"/>
 <path id="Path-95" d="M280.64 275.924 L318.733 275.924 C320.481 275.924 321.898 274.506 321.898 272.758 L299.686 258.79 277.474 272.758 C277.474 274.506 278.892 275.924 280.64 275.924 Z" fill="#c8ddf5" fill-opacity="1" stroke="none"/>
 <path id="Path-96" d="M280.64 245.697 L318.733 245.697 C320.481 245.697 321.898 247.114 321.898 248.862 L299.686 262.831 277.474 248.862 C277.474 247.114 278.892 245.697 280.64 245.697 Z" fill="#4371d7" fill-opacity="1" stroke="none"/>
 <path id="Path-97" d="M534.791 316.366 C534.791 337.688 552.075 354.974 573.397 354.974 594.72 354.974 612.005 337.688 612.005 316.366 612.005 295.044 594.72 277.759 573.397 277.759 552.075 277.759 534.791 295.044 534.791 316.366 Z" fill="#e6b851" fill-opacity="1" stroke="none"/>
 <path id="Path-98" d="M566.797 317.892 C563.506 317.892 560.841 315.225 560.841 311.935 560.841 308.645 563.506 305.978 566.797 305.978 570.087 305.978 572.754 308.645 572.754 311.935 572.754 315.225 570.087 317.892 566.797 317.892 Z M584.226 308.817 L580.344 308.817 C579.993 307.285 579.389 305.855 578.579 304.563 L581.327 301.816 C581.701 301.441 581.701 300.834 581.327 300.459 L578.273 297.406 C577.899 297.032 577.291 297.032 576.916 297.406 L574.169 300.153 C572.877 299.342 571.446 298.738 569.915 298.387 L569.915 294.506 C569.915 293.976 569.486 293.546 568.956 293.546 L564.638 293.546 C564.109 293.546 563.679 293.976 563.679 294.506 L563.679 298.387 C562.148 298.738 560.717 299.342 559.424 300.153 L556.678 297.406 C556.304 297.032 555.695 297.032 555.321 297.406 L552.268 300.459 C551.894 300.834 551.894 301.441 552.268 301.816 L555.015 304.563 C554.205 305.855 553.601 307.285 553.249 308.817 L549.368 308.817 C548.838 308.817 548.409 309.247 548.409 309.776 L548.409 314.094 C548.409 314.624 548.838 315.053 549.368 315.053 L553.249 315.053 C553.601 316.584 554.205 318.015 555.015 319.307 L552.268 322.054 C551.894 322.43 551.894 323.037 552.268 323.411 L555.321 326.464 C555.695 326.839 556.304 326.839 556.678 326.464 L559.424 323.717 C560.717 324.527 562.148 325.131 563.679 325.482 L563.679 329.364 C563.679 329.894 564.109 330.323 564.638 330.323 L568.956 330.323 C569.486 330.323 569.915 329.894 569.915 329.364 L569.915 325.482 C571.446 325.131 572.877 324.527 574.169 323.717 L576.916 326.464 C577.291 326.839 577.899 326.839 578.273 326.464 L581.327 323.411 C581.701 323.037 581.701 322.43 581.327 322.054 L578.579 319.307 C579.389 318.015 579.993 316.584 580.344 315.053 L584.226 315.053 C584.757 315.053 585.185 314.624 585.185 314.094 L585.185 309.776 C585.185 309.247 584.757 308.817 584.226 308.817" fill="#6c83dc" fill-opacity="1" stroke="none"/>
 <path id="Path-99" d="M566.797 316.998 C564.001 316.998 561.734 314.731 561.734 311.935 561.734 309.139 564.001 306.872 566.797 306.872 569.593 306.872 571.86 309.139 571.86 311.935 571.86 314.731 569.593 316.998 566.797 316.998 Z M566.797 303.643 C562.218 303.643 558.505 307.355 558.505 311.935 558.505 316.515 562.218 320.227 566.797 320.227 571.376 320.227 575.09 316.515 575.09 311.935 575.09 307.355 571.376 303.643 566.797 303.643 Z" fill="#4371d7" fill-opacity="1" stroke="none"/>
 <path id="Path-100" d="M591.901 330.456 C590.221 330.456 588.858 329.094 588.858 327.413 588.858 325.733 590.221 324.371 591.901 324.371 593.581 324.371 594.944 325.733 594.944 327.413 594.944 329.094 593.581 330.456 591.901 330.456 Z M600.805 325.82 L598.821 325.82 C598.643 325.038 598.334 324.307 597.92 323.647 L599.323 322.244 C599.514 322.052 599.514 321.742 599.323 321.551 L597.764 319.991 C597.573 319.8 597.262 319.8 597.071 319.991 L595.667 321.394 C595.007 320.98 594.276 320.672 593.494 320.493 L593.494 318.51 C593.494 318.239 593.274 318.02 593.004 318.02 L590.798 318.02 C590.527 318.02 590.307 318.239 590.307 318.51 L590.307 320.493 C589.526 320.672 588.795 320.98 588.135 321.394 L586.732 319.991 C586.539 319.8 586.229 319.8 586.038 319.991 L584.479 321.551 C584.288 321.742 584.288 322.052 584.479 322.244 L585.882 323.647 C585.468 324.307 585.159 325.038 584.981 325.82 L582.997 325.82 C582.726 325.82 582.507 326.04 582.507 326.31 L582.507 328.516 C582.507 328.786 582.726 329.006 582.997 329.006 L584.981 329.006 C585.159 329.788 585.468 330.519 585.882 331.18 L584.479 332.583 C584.288 332.774 584.288 333.085 584.479 333.276 L586.038 334.836 C586.229 335.027 586.539 335.027 586.732 334.836 L588.135 333.432 C588.795 333.846 589.526 334.155 590.307 334.334 L590.307 336.317 C590.307 336.588 590.527 336.808 590.798 336.808 L593.004 336.808 C593.274 336.808 593.494 336.588 593.494 336.317 L593.494 334.334 C594.276 334.155 595.007 333.846 595.667 333.432 L597.071 334.836 C597.262 335.027 597.573 335.027 597.764 334.836 L599.323 333.276 C599.514 333.085 599.514 332.774 599.323 332.583 L597.92 331.18 C598.334 330.519 598.643 329.788 598.821 329.006 L600.805 329.006 C601.076 329.006 601.295 328.786 601.295 328.516 L601.295 326.31 C601.295 326.04 601.076 325.82 600.805 325.82" fill="#6c83dc" fill-opacity="1" stroke="none"/>
 <path id="Path-101" d="M591.902 330 C590.473 330 589.315 328.842 589.315 327.414 589.315 325.984 590.473 324.827 591.902 324.827 593.331 324.827 594.488 325.984 594.488 327.414 594.488 328.842 593.331 330 591.902 330 Z M591.902 323.177 C589.562 323.177 587.666 325.073 587.666 327.414 587.666 329.752 589.562 331.649 591.902 331.649 594.241 331.649 596.138 329.752 596.138 327.414 596.138 325.073 594.241 323.177 591.902 323.177 Z" fill="#4371d7" fill-opacity="1" stroke="none"/>
 <path id="Path-102" d="M360.619 207.013 C360.619 228.335 377.904 245.62 399.225 245.62 420.548 245.62 437.833 228.335 437.833 207.013 437.833 185.69 420.548 168.405 399.225 168.405 377.904 168.405 360.619 185.69 360.619 207.013 Z" fill="#e3e4eb" fill-opacity="1" stroke="none"/>
 <path id="Path-103" d="M377.014 196.817 L421.439 196.817 421.439 191.92 C421.439 190.234 420.073 188.867 418.386 188.867 L380.067 188.867 C378.381 188.867 377.014 190.234 377.014 191.92 Z" fill="#4371d7" fill-opacity="1" stroke="none"/>
 <path id="Path-104" d="M402.03 205.392 L404.414 205.392 C404.818 205.392 405.146 205.064 405.146 204.659 L405.146 202.275 C405.146 201.871 404.818 201.544 404.414 201.544 L402.03 201.544 C401.626 201.544 401.297 201.871 401.297 202.275 L401.297 204.659 C401.297 205.064 401.626 205.392 402.03 205.392 Z" fill="#6c83dc" fill-opacity="1" stroke="none"/>
 <path id="Path-105" d="M392.873 205.392 L395.256 205.392 C395.662 205.392 395.989 205.064 395.989 204.659 L395.989 202.275 C395.989 201.871 395.662 201.544 395.256 201.544 L392.873 201.544 C392.468 201.544 392.14 201.871 392.14 202.275 L392.14 204.659 C392.14 205.064 392.468 205.392 392.873 205.392 Z" fill="#6c83dc" fill-opacity="1" stroke="none"/>
 <path id="Path-106" d="M383.715 205.392 L386.099 205.392 C386.503 205.392 386.831 205.064 386.831 204.659 L386.831 202.275 C386.831 201.871 386.503 201.544 386.099 201.544 L383.715 201.544 C383.311 201.544 382.982 201.871 382.982 202.275 L382.982 204.659 C382.982 205.064 383.311 205.392 383.715 205.392 Z" fill="#6c83dc" fill-opacity="1" stroke="none"/>
 <path id="Path-107" d="M411.188 213.277 L413.571 213.277 C413.977 213.277 414.304 212.949 414.304 212.545 L414.304 210.161 C414.304 209.756 413.977 209.429 413.571 209.429 L411.188 209.429 C410.783 209.429 410.455 209.756 410.455 210.161 L410.455 212.545 C410.455 212.949 410.783 213.277 411.188 213.277 Z" fill="#6c83dc" fill-opacity="1" stroke="none"/>
 <path id="Path-108" d="M402.03 213.277 L404.414 213.277 C404.818 213.277 405.146 212.949 405.146 212.545 L405.146 210.161 C405.146 209.756 404.818 209.429 404.414 209.429 L402.03 209.429 C401.626 209.429 401.297 209.756 401.297 210.161 L401.297 212.545 C401.297 212.949 401.626 213.277 402.03 213.277 Z" fill="#6c83dc" fill-opacity="1" stroke="none"/>
 <path id="Path-109" d="M392.873 213.277 L395.256 213.277 C395.662 213.277 395.989 212.949 395.989 212.545 L395.989 210.161 C395.989 209.756 395.662 209.429 395.256 209.429 L392.873 209.429 C392.468 209.429 392.14 209.756 392.14 210.161 L392.14 212.545 C392.14 212.949 392.468 213.277 392.873 213.277 Z" fill="#6c83dc" fill-opacity="1" stroke="none"/>
 <path id="Path-110" d="M383.715 213.277 L386.099 213.277 C386.503 213.277 386.831 212.949 386.831 212.545 L386.831 210.161 C386.831 209.756 386.503 209.429 386.099 209.429 L383.715 209.429 C383.311 209.429 382.982 209.756 382.982 210.161 L382.982 212.545 C382.982 212.949 383.311 213.277 383.715 213.277 Z" fill="#6c83dc" fill-opacity="1" stroke="none"/>
 <path id="Path-111" d="M411.188 221.163 L413.571 221.163 C413.977 221.163 414.304 220.835 414.304 220.43 L414.304 218.046 C414.304 217.642 413.977 217.314 413.571 217.314 L411.188 217.314 C410.783 217.314 410.455 217.642 410.455 218.046 L410.455 220.43 C410.455 220.835 410.783 221.163 411.188 221.163 Z" fill="#6c83dc" fill-opacity="1" stroke="none"/>
 <path id="Path-112" d="M402.03 221.163 L404.414 221.163 C404.818 221.163 405.146 220.835 405.146 220.43 L405.146 218.046 C405.146 217.642 404.818 217.314 404.414 217.314 L402.03 217.314 C401.626 217.314 401.297 217.642 401.297 218.046 L401.297 220.43 C401.297 220.835 401.626 221.163 402.03 221.163 Z" fill="#6c83dc" fill-opacity="1" stroke="none"/>
 <path id="Path-113" d="M392.873 221.163 L395.256 221.163 C395.662 221.163 395.989 220.835 395.989 220.43 L395.989 218.046 C395.989 217.642 395.662 217.314 395.256 217.314 L392.873 217.314 C392.468 217.314 392.14 217.642 392.14 218.046 L392.14 220.43 C392.14 220.835 392.468 221.163 392.873 221.163 Z" fill="#6c83dc" fill-opacity="1" stroke="none"/>
 <path id="Path-114" d="M548.353 226.853 C548.353 248.175 531.069 265.46 509.747 265.46 488.425 265.46 471.14 248.175 471.14 226.853 471.14 205.531 488.425 188.245 509.747 188.245 531.069 188.245 548.353 205.531 548.353 226.853 Z" fill="#ff7571" fill-opacity="1" stroke="none"/>
 <path id="Path-115" d="M511.964 249.382 L511.964 245.771 C511.964 245.1 511.42 244.555 510.749 244.555 L508.746 244.555 C508.074 244.555 507.53 245.1 507.53 245.771 L507.53 249.382 C496.797 248.339 488.261 239.802 487.217 229.071 L490.828 229.071 C491.5 229.071 492.044 228.526 492.044 227.855 L492.044 225.852 C492.044 225.18 491.5 224.636 490.828 224.636 L487.217 224.636 C488.261 213.904 496.797 205.368 507.53 204.323 L507.53 207.935 C507.53 208.606 508.074 209.15 508.746 209.15 L510.749 209.15 C511.42 209.15 511.964 208.606 511.964 207.935 L511.964 204.323 C522.696 205.368 531.233 213.904 532.276 224.636 L528.665 224.636 C527.994 224.636 527.449 225.18 527.449 225.852 L527.449 227.855 C527.449 228.526 527.994 229.071 528.665 229.071 L532.276 229.071 C531.233 239.802 522.696 248.339 511.964 249.382 Z M509.747 200.41 C495.142 200.41 483.303 212.249 483.303 226.853 483.303 241.457 495.142 253.296 509.747 253.296 524.351 253.296 536.19 241.457 536.19 226.853 536.19 212.249 524.351 200.41 509.747 200.41 Z" fill="#cc3834" fill-opacity="1" stroke="none"/>
 <path id="Path-116" d="M491.551 188.596 C491.551 186.296 492.171 184.54 493.411 183.326 494.483 182.254 495.891 181.718 497.635 181.718 499.236 181.718 500.599 182.318 501.723 183.519 502.859 184.721 503.428 186.122 503.428 187.724 503.428 189.377 503.059 190.972 502.323 192.509 501.923 193.362 500.986 194.828 499.514 196.907 499.113 197.476 498.519 198.36 497.731 199.562 L497.073 200.55 C496.646 201.196 496.323 201.706 496.104 202.08 496.001 202.261 495.949 202.371 495.949 202.41 L503.137 202.429 503.137 206.013 491.493 206.013 491.493 202.662 C491.493 202.584 491.764 202.138 492.306 201.325 492.552 200.95 492.83 200.537 493.14 200.085 L494.089 198.709 C494.644 197.947 495.516 196.726 496.705 195.047 497.828 193.472 498.668 192.044 499.223 190.766 499.675 189.719 499.901 188.744 499.901 187.84 499.901 187.104 499.695 186.477 499.281 185.961 498.829 185.418 498.248 185.147 497.538 185.147 496.517 185.147 495.794 185.735 495.368 186.91 495.226 187.297 495.155 187.762 495.155 188.305 L495.155 189.235 491.551 189.235 Z M503.614 197.101 L510.085 181.718 513.747 181.718 513.747 197.101 516.091 197.101 516.091 200.782 513.747 200.782 513.747 206.013 510.085 206.013 510.085 200.782 503.614 200.782 Z M510.085 197.101 L510.085 189.526 507.063 197.101 Z M501.626 216.206 L504.609 216.206 494.476 242.769 491.493 242.769 Z M518.135 217.718 L518.135 221.399 513.001 242.013 509.417 242.013 514.551 221.399 507.13 221.399 507.13 217.718 Z" fill="#d6c9db" fill-opacity="1" stroke="none"/>
 <path id="Path-117" d="M269.338 379.771 C270.599 386.106 264.734 391.737 262.898 392.793 261.061 393.848 248.739 398.775 241.336 398.951 233.934 399.127 224.164 383.467 228.162 381.708 232.162 379.948 259.399 378.013 262.39 378.013 265.381 378.013 269.338 379.771 269.338 379.771 Z" fill="#ffc6c8" fill-opacity="1" stroke="none"/>
 <path id="Path-118" d="M249.926 376.43 C246.695 395.432 239.022 410.213 236.627 410.477 234.233 410.74 211.229 402.823 204.887 399.919 198.546 397.016 206.834 352.417 210.781 353.203 214.729 353.988 223.381 362.556 230.526 366.665 237.671 370.774 249.926 376.43 249.926 376.43 Z" fill="#f9ca45" fill-opacity="1" stroke="none"/>
 <path id="Path-119" d="M212.036 384.329 C214.253 388.132 232.534 397.771 242.602 401.285 240.113 406.897 237.769 410.35 236.627 410.475 234.577 410.702 217.419 404.93 208.549 401.442 209.291 394.381 212.036 384.329 212.036 384.329 Z" fill="#c7a237" fill-opacity="1" stroke="none"/>
 <path id="Path-120" d="M269.365 378.894 C269.546 386.433 262.756 387.515 254.626 385.58 246.498 383.644 233.226 365.345 227.317 357.075 221.408 348.805 210.384 334.069 208.105 332.751 205.826 331.431 200.597 330.73 196.124 323.295 191.651 315.859 197.535 300.287 199.649 298.44 201.762 296.592 219.876 302.761 221.981 305.879 224.086 308.997 220.491 325.756 221.129 327.868 221.767 329.979 237.183 347.223 243.914 351.445 250.645 355.668 269.234 373.439 269.365 378.894 Z" fill="#ffc6c8" fill-opacity="1" stroke="none"/>
 <path id="Path-121" d="M208.927 310.881 C206.796 309.826 206.281 305.03 207.621 305.876 208.962 306.721 211.306 306.703 214.478 306.658 217.649 306.614 218.95 306.34 218.95 306.34 218.95 306.34 219.275 308.418 219.259 310.12 219.259 310.12 211.058 311.937 208.927 310.881 Z" fill="#ff8b8c" fill-opacity="1" stroke="none"/>
 <path id="Path-122" d="M194.821 311.971 C196.113 309.569 197.11 307.748 197.11 307.748 L209.571 319.742 C212.979 316.787 217.148 314.091 217.148 314.091 L218.245 316.046 C216.228 319.458 214.472 326.672 214.432 328.431 214.432 328.431 212.519 330.543 211.45 330.719 211.45 330.719 224.781 351.833 233.351 362.214 241.87 372.534 247.705 381.46 251.723 384.329 243.619 379.656 232.567 364.422 227.316 357.075 221.408 348.805 210.384 334.069 208.105 332.75 205.826 331.43 200.597 330.73 196.125 323.294 194.35 320.345 194.218 316.117 194.821 311.971 Z" fill="#ff8b8c" fill-opacity="1" stroke="none"/>
 <path id="Path-123" d="M220.758 313.175 C220.606 314.406 208.223 325.14 206.927 326.371 206.83 326.464 205.863 326.605 205.597 326.371 202.302 323.477 187.923 297.365 187.666 296.423 187.426 295.543 196.973 286.561 199.888 284.158 200.284 283.83 201.921 284.029 202.189 284.426 205.13 288.782 220.952 311.586 220.758 313.175 Z" fill="#050233" fill-opacity="1" stroke="none"/>
 <path id="Path-124" d="M219.427 313.175 C219.275 314.406 206.893 325.14 205.596 326.371 204.3 327.603 186.613 297.441 186.336 296.423 186.095 295.543 196.724 286.707 199.638 284.304 200.036 283.977 200.589 284.029 200.858 284.427 203.799 288.782 219.622 311.586 219.427 313.175 Z" fill="#211e88" fill-opacity="1" stroke="none"/>
 <path id="Path-125" d="M217.342 311.41 C217.201 312.561 205.617 322.603 204.404 323.756 203.192 324.908 186.645 296.691 186.385 295.738 186.161 294.916 196.104 286.649 198.831 284.401 199.202 284.095 199.721 284.143 199.971 284.515 202.724 288.59 217.525 309.923 217.342 311.41 Z" fill="#00b1fa" fill-opacity="1" stroke="none"/>
 <path id="Path-126" d="M209.915 296.692 C207.998 295.536 205.644 291.621 205.431 290.301 205.219 288.982 205.351 287.794 206.381 287.53 207.412 287.267 210.586 291.401 212.168 292.633 213.75 293.865 215.675 296.416 214.891 298.132 214.106 299.847 210.592 299.187 210.215 298.924 209.838 298.659 209.915 296.692 209.915 296.692 Z" fill="#ffc6c8" fill-opacity="1" stroke="none"/>
 <path id="Path-127" d="M205.788 287.878 C205.18 289.379 209.141 295.399 212.614 297.133 L211.324 298.608 C211.324 298.608 210.738 298.479 209.985 298.301 209.881 297.633 209.915 296.693 209.915 296.693 207.998 295.537 205.644 291.622 205.431 290.303 205.271 289.302 205.312 288.382 205.788 287.878 Z" fill="#ff8b8c" fill-opacity="1" stroke="none"/>
 <path id="Path-128" d="M214.374 302.776 C211.074 301.013 208.487 301.21 206.693 300.485 204.897 299.759 204.571 296.988 205.793 296.526 207.014 296.064 214.45 297.252 216.366 298.11 218.283 298.967 219.199 302.919 219.199 302.919 Z" fill="#ffc6c8" fill-opacity="1" stroke="none"/>
 <path id="Path-129" d="M212.929 300.72 C214.796 301.072 215.437 300.72 215.437 300.72 215.383 301.449 216.072 301.812 216.847 302.849 L214.373 302.776 C211.075 301.013 208.487 301.21 206.692 300.485 205.873 300.154 205.377 299.397 205.177 298.628 205.976 300.148 211.073 300.37 212.929 300.72 Z" fill="#ff8b8c" fill-opacity="1" stroke="none"/>
 <path id="Path-130" d="M221.981 305.878 C220.22 308.314 211.587 307.258 209.847 306.994 208.107 306.73 207.014 305.631 207.192 304.523 207.55 302.287 218.958 302.684 219.901 303.036 220.842 303.388 221.981 305.878 221.981 305.878 Z" fill="#ffc6c8" fill-opacity="1" stroke="none"/>
 <path id="Path-131" d="M207.255 305.062 C208.434 306.234 211.269 306.902 214.364 307.152 217.044 307.368 218.584 307.264 218.94 307.233 215.686 307.752 211.07 307.18 209.847 306.995 208.394 306.775 207.442 305.966 207.255 305.062 Z" fill="#ff8b8c" fill-opacity="1" stroke="none"/>
 <path id="Path-132" d="M181.58 340.008 C199.904 349.333 202.91 348.972 210.782 353.202 218.651 357.432 216.309 401.943 215.81 408.804 215.31 415.667 213.414 442.939 214.459 450.329 215.505 457.719 219.578 485.167 221.383 489.389 223.186 493.613 226.626 500.74 221.305 504.961 215.983 509.184 204.723 512.088 180.275 510.504 155.827 508.921 129.473 493.877 128.307 491.766 127.141 489.654 139.994 450.857 140.532 443.466 141.07 436.076 142.529 430.534 143.307 427.103 144.084 423.672 136.306 407.573 135.064 397.279 133.821 386.987 122.638 358.591 124.759 353.39 126.88 348.189 146.357 342.395 159.621 335.78 172.884 329.166 181.58 340.008 181.58 340.008 Z" fill="#f9ca45" fill-opacity="1" stroke="none"/>
 <path id="Path-133" d="M199.747 351.549 C196.73 361.464 190.588 370.403 182.415 376.775 172.491 374.341 162.401 369.969 154.275 363.774 163.356 370.462 173.261 376.09 183.864 379.931 192.82 372.596 198.135 363.012 199.747 351.549 Z" fill="#c7a237" fill-opacity="1" stroke="none"/>
 <path id="Path-134" d="M196.006 346.83 C192.487 345.328 187.964 343.257 181.58 340.008 181.58 340.008 172.884 329.165 159.621 335.78 155.018 338.075 149.669 340.271 144.555 342.378 152.456 355.82 165.258 366.335 180.036 371.336 187.828 365.199 193.431 356.407 196.006 346.83 Z" fill="#ffc6c8" fill-opacity="1" stroke="none"/>
 <path id="Path-135" d="M128.308 491.766 C127.142 489.654 139.995 450.857 140.532 443.467 141.07 436.077 142.529 430.534 143.306 427.104 144.084 423.672 136.307 407.573 135.064 397.28 134.849 395.491 134.328 393.148 133.634 390.483 L141.896 384.329 C146.742 397.845 149.763 421.598 154.355 427.404 158.948 433.211 170.388 435.585 170.388 435.585 170.388 435.585 159.088 438.225 154.161 437.169 154.161 437.169 148.901 458.02 148.841 468.313 148.782 478.606 149.737 494.177 149.859 496.29 149.905 497.077 149.731 499.826 149.494 502.958 137.655 498.271 128.966 492.958 128.308 491.766 Z" fill="#000000" fill-opacity="1" stroke="none"/>
 <path id="Path-136" d="M161.701 317.03 C161.513 328.044 160.785 335.609 158.345 337.721 158.345 337.721 162.542 355.996 179.298 354.436 184.967 353.908 184.427 344.407 181.58 340.008 L183.266 326.5 Z" fill="#ffc6c8" fill-opacity="1" stroke="none"/>
 <path id="Path-137" d="M159.621 335.781 C161.055 332.402 161.55 325.82 161.701 317.03 L183.267 326.5 182.185 335.162 C178.362 336.877 159.621 335.781 159.621 335.781 Z" fill="#ff8b8c" fill-opacity="1" stroke="none"/>
 <path id="Path-138" d="M102.315 406.103 C98.6 411.206 93.632 423.874 95.497 429.681 97.361 435.488 116.593 461.352 125.39 471.029 134.187 480.706 136.183 482.29 137.712 485.457 139.242 488.625 146.736 501.688 148.703 503.669 150.67 505.647 154.215 505.912 154.215 505.912 154.215 505.912 156.864 508.814 161.938 508.287 161.938 508.287 166.357 511.322 169.863 512.113 169.863 512.113 171.02 514.355 172.192 514.553 173.366 514.753 174.858 512.378 172.697 507.627 170.536 502.876 166.985 500.897 166.414 497.862 165.843 494.827 163.095 488.634 163.095 488.634 163.095 488.634 169.264 494.958 173.062 495.354 176.86 495.751 177.37 493.507 175.286 491.659 173.201 489.812 170.499 487.041 167.988 483.477 165.476 479.914 162.35 477.54 157.515 476.88 152.68 476.22 149.288 475.693 148.035 474.769 146.783 473.845 140.462 464.872 136.141 455.194 131.822 445.516 127.952 433.15 116.972 422.291 L121.81 413.845 Z" fill="#ffc6c8" fill-opacity="1" stroke="none"/>
 <path id="Path-139" d="M169.701 511.509 C168.764 508.833 167.044 506.55 165.151 504.519 L164.401 503.78 C164.179 503.55 163.788 503.26 163.702 503.124 163.323 502.642 162.996 502.006 162.632 501.434 161.935 500.247 161.258 499.038 160.488 497.872 160.855 499.243 161.348 500.551 161.9 501.841 162.172 502.498 162.468 503.107 162.882 503.756 163.201 504.181 163.408 504.27 163.655 504.546 L164.361 505.275 C165.312 506.249 166.212 507.273 167.119 508.294 168.02 509.324 168.863 510.394 169.701 511.509 Z" fill="#ff8b8c" fill-opacity="1" stroke="none"/>
 <path id="Path-140" d="M161.731 507.373 C161.004 505.952 160.142 504.72 159.371 503.426 158.566 502.148 157.851 500.866 157.117 499.456 157.037 501.117 157.65 502.681 158.459 504.024 159.304 505.358 160.38 506.532 161.731 507.373 Z" fill="#ff8b8c" fill-opacity="1" stroke="none"/>
 <path id="Path-141" d="M157.87 507.937 C155.476 507.245 154.214 505.912 154.214 505.912 154.214 505.912 150.67 505.647 148.703 503.669 147.899 502.859 146.169 500.192 144.304 497.112 144.344 497.161 146.555 499.563 148.145 501.546 150.384 504.338 153.597 503.414 153.597 503.414 L153.168 500.841 C153.168 500.841 155.305 506.683 157.87 507.937" fill="#ff8b8c" fill-opacity="1" stroke="none"/>
 <path id="Path-142" d="M95.415 423.229 C95.52 425.636 95.548 427.551 99.12 433.87 103.141 440.982 127.301 470.951 132.572 476.494 137.842 482.036 137.686 482.389 140.806 491.146 139.397 488.67 138.222 486.512 137.712 485.457 136.184 482.29 134.187 480.706 125.39 471.028 116.593 461.352 97.361 435.487 95.496 429.68 94.955 427.993 95.002 425.72 95.415 423.229 Z" fill="#ff8b8c" fill-opacity="1" stroke="none"/>
 <path id="Path-143" d="M114.353 416.302 L112.39 419.574 C112.39 419.574 115.046 420.292 116.972 422.29 L120.802 415.791 Z" fill="#ff8b8c" fill-opacity="1" stroke="none"/>
 <path id="Path-144" d="M137.507 398.411 C142.553 388.491 144.573 372.382 140.018 363.904 135.464 355.425 126.868 352.372 124.76 353.39 122.65 354.408 116.94 367.634 111.578 373.739 106.216 379.844 91.573 396.97 91.13 398.411 90.685 399.853 101.712 411.487 122.453 420.031 124.922 421.049 137.507 398.411 137.507 398.411 Z" fill="#f9ca45" fill-opacity="1" stroke="none"/>
 <g id="group">
  <path id="Path-145" d="M122.123 406.103 L118.814 412.888 C118.814 412.888 135.114 396.548 141.88 384.355 141.06 389.442 139.534 394.427 137.507 398.412 137.507 398.412 124.923 421.05 122.453 420.032 118.904 418.57 115.663 417.016 112.691 415.439 Z" fill="#000000" fill-opacity="1" stroke="none"/>
 </g>
 <path id="Path-146" d="M184.513 318.016 C183.392 313.476 183.416 308.833 183.145 304.19 182.943 300.718 182.767 297.541 179.616 295.464 177.313 293.947 174.426 293.649 171.716 293.992 164.435 294.916 162.869 302.012 163.426 308.73 163.853 313.872 165.862 318.81 167.857 323.54 165.179 323.422 161.523 322.018 159.923 319.79 160.642 322.722 162.002 325.417 164.129 327.491 156.369 327.357 149.166 322.28 145.055 315.46 140.945 308.642 139.643 300.315 140.081 292.29 140.6 282.765 143.57 273.217 149.461 265.884 161.31 251.135 184.139 249.415 198.04 262.09 202.819 266.447 206.286 272.289 208.019 278.624 210.299 286.951 210.252 295.885 208.476 304.309 207.741 307.796 207.404 310.816 207.058 314.308 206.95 315.391 205.637 327.963 206.397 327.917 201.495 328.215 195.863 327.225 192.542 323.478 194.031 326.052 195.316 328.531 196.805 331.104 190.615 330.075 186.066 324.307 184.513 318.016 Z" fill="#a072ae" fill-opacity="1" stroke="none"/>
 <path id="Path-147" d="M159.076 300.884 C156.887 299.589 154.255 298.887 152.224 300.947 149.231 303.982 153.482 318.102 159.935 314.671 159.935 314.671 169.277 327.735 176.133 331.43 182.991 335.125 187.876 333.278 190.443 330.639 193.011 328 201.768 317.173 203.343 305.697 203.905 301.606 203.304 293.557 203.428 291.841 203.813 286.563 205.812 282.229 201.649 278.087 197.443 273.902 191.617 271.37 185.687 271.161 178.218 270.897 170.752 274.254 165.806 279.856 160.341 286.047 159.394 293.038 159.076 300.884 Z" fill="#ffc6c8" fill-opacity="1" stroke="none"/>
 <path id="Path-148" d="M153.284 304.806 C153.842 302.219 156.048 301.71 157.689 303.512 159.372 305.36 159.655 311.212 159.222 312.074 158.79 312.936 155.9 312.875 155.352 311.088 154.805 309.302 156.487 308.182 158.112 308.712 158.112 308.712 158.566 306.104 157.238 304.425 155.91 302.746 154.527 303.39 154.187 303.82 153.847 304.252 153.284 304.806 153.284 304.806 Z" fill="#ff8b8c" fill-opacity="1" stroke="none"/>
 <path id="Path-149" d="M171.143 293.362 C171.768 292.781 172.431 292.241 173.126 291.728 173.826 291.223 174.571 290.769 175.364 290.4 176.15 290.03 176.974 289.632 177.845 289.565 178.708 289.489 179.575 289.558 180.365 289.897 L180.354 290.016 C179.931 290.186 179.53 290.294 179.134 290.408 L177.971 290.73 C177.215 290.952 176.43 291.02 175.663 291.276 174.9 291.529 174.148 291.854 173.408 292.227 172.661 292.591 171.939 293.023 171.21 293.456 Z" fill="#471052" fill-opacity="1" stroke="none"/>
 <path id="Path-150" d="M200.332 290.399 C199.624 290.025 198.877 289.753 198.099 289.589 197.325 289.415 196.534 289.328 195.739 289.308 194.94 289.291 194.146 289.455 193.357 289.449 192.561 289.451 191.763 289.475 190.889 289.388 L190.864 289.274 C191.611 288.732 192.462 288.439 193.322 288.272 194.188 288.097 195.054 288.24 195.89 288.365 196.73 288.488 197.549 288.705 198.316 289.024 199.077 289.353 199.802 289.761 200.405 290.301 Z" fill="#471052" fill-opacity="1" stroke="none"/>
 <path id="Path-151" d="M178.979 298.002 C178.95 296.886 178.388 296.034 177.724 296.099 177.059 296.165 176.545 297.123 176.574 298.239 176.604 299.355 177.166 300.207 177.83 300.141 178.494 300.077 179.008 299.119 178.979 298.002 Z" fill="#471052" fill-opacity="1" stroke="none"/>
 <path id="Path-152" d="M196.607 296.592 C196.577 295.476 196.114 294.613 195.57 294.667 195.028 294.721 194.611 295.669 194.641 296.785 194.669 297.901 195.134 298.763 195.677 298.71 196.22 298.656 196.637 297.708 196.607 296.592 Z" fill="#471052" fill-opacity="1" stroke="none"/>
 <path id="Path-153" d="M184.499 308.852 C186.028 309.915 188.28 309.892 189.944 308.797 189.754 309.657 189.37 310.495 188.533 310.801 187.696 311.106 186.772 311.016 186.003 310.664 185.234 310.311 184.985 309.537 184.499 308.852 Z" fill="#ff8b8c" fill-opacity="1" stroke="none"/>
 <path id="Path-154" d="M178.383 315.401 C182.064 315.46 190.915 314.781 193.801 314.371 192.663 318.1 189.679 321.784 185.511 321.786 181.76 321.789 179.282 318.706 178.383 315.401 Z" fill="#c47e75" fill-opacity="1" stroke="none"/>
 <path id="Path-155" d="M181.76 320.568 C183.224 320.117 184.713 320.349 185.313 320.534 185.313 320.534 187.26 319.172 190.089 320.067 188.801 321.106 187.27 321.785 185.512 321.786 184.064 321.787 182.811 321.321 181.76 320.568 Z" fill="#ff8485" fill-opacity="1" stroke="none"/>
 <path id="Path-156" d="M191.303 317.491 C187.576 318.653 183.508 318.318 179.998 317.053 179.974 316.503 179.933 315.948 179.89 315.393 183.529 315.316 189.419 314.876 192.572 314.523 192.301 315.555 191.891 316.563 191.303 317.491 Z" fill="#ffffff" fill-opacity="1" stroke="none"/>
 <path id="Path-157" d="M162.758 288.737 C168.762 288.482 174.719 287.159 180.268 284.85 181.324 282.407 181.36 280.24 181.518 277.585 183.027 280.352 183.924 283.45 184.08 286.599 187.576 286.372 191.089 286.184 194.585 285.958 195.565 283.187 195.684 280.334 195.529 277.399 196.711 280.155 197.304 283.627 197.707 286.598 199.818 285.848 202.492 286.943 204.698 287.338 207.43 281.25 207.251 270.222 201.47 265.606 195.841 261.109 186.062 259.886 179.182 260.882 164.547 263 153.044 275.152 153.953 290.292 154.471 298.928 158.804 307.096 165.017 313.118 161.322 305.749 160.59 296.689 162.758 288.737 Z" fill="#a072ae" fill-opacity="1" stroke="none"/>
 <path id="Path-158" d="M596 195 C586.61 195 579 202.61 579 212 579 217.067 581.215 221.618 584.736 224.737 587.741 227.387 591.683 229 596 229 600.324 229 604.266 227.387 607.264 224.73 610.785 221.618 613 217.067 613 212 613 202.61 605.39 195 596 195 Z" fill="#cbd5fc" fill-opacity="1" stroke="none"/>
 <path id="Path-159" d="M605.932 223.351 C605.062 222.702 603.483 221.625 601.763 220.828 600.043 220.038 599.032 218.184 599.306 216.317 599.306 216.29 599.313 216.263 599.32 216.23 599.32 216.23 603.235 213.58 602.693 210.996 602.693 210.996 602.813 211.003 602.994 210.989 604.721 210.829 604.828 208.259 603.121 207.984 603.108 207.984 603.088 207.978 603.075 207.978 L603.021 207.697 C603.543 205.869 604.815 200.334 600.966 200.87 600.966 200.87 598.202 196.299 592.359 198.501 586.51 200.696 588.036 205.936 588.036 205.936 L588.758 208.025 C587.186 208.413 587.333 210.842 589.006 210.996 589.187 211.01 589.314 211.003 589.314 211.003 588.765 213.586 592.68 216.237 592.68 216.237 592.687 216.27 592.687 216.297 592.694 216.324 592.962 218.191 591.951 220.045 590.238 220.835 588.511 221.631 586.938 222.715 586.068 223.358 585.546 223.739 585.084 224.201 584.729 224.743 587.741 227.387 591.683 229 596 229 600.324 229 604.266 227.387 607.264 224.73 606.916 224.195 606.454 223.733 605.932 223.351 Z" fill="#819fde" fill-opacity="1" stroke="none"/>
 <path id="Path-160" d="M388.5 20 C375.519 20 365 30.52 365 43.5 365 50.504 368.062 56.795 372.929 61.107 377.083 64.77 382.532 67 388.5 67 394.477 67 399.926 64.77 404.071 61.097 408.938 56.795 412 50.504 412 43.5 412 30.52 401.481 20 388.5 20 Z" fill="#cbd5fc" fill-opacity="1" stroke="none"/>
 <path id="Path-161" d="M402.23 59.191 C401.027 58.294 398.844 56.804 396.466 55.703 394.088 54.612 392.691 52.049 393.07 49.467 393.07 49.43 393.08 49.393 393.089 49.347 393.089 49.347 398.501 45.683 397.752 42.112 397.752 42.112 397.918 42.121 398.168 42.103 400.555 41.881 400.703 38.328 398.344 37.949 398.326 37.949 398.298 37.939 398.279 37.939 L398.205 37.551 C398.927 35.025 400.685 27.374 395.365 28.114 395.365 28.114 391.544 21.795 383.467 24.839 375.381 27.873 377.49 35.118 377.49 35.118 L378.489 38.004 C376.315 38.541 376.519 41.899 378.832 42.112 379.081 42.131 379.257 42.121 379.257 42.121 378.499 45.693 383.911 49.356 383.911 49.356 383.92 49.403 383.92 49.44 383.93 49.477 384.3 52.058 382.903 54.621 380.534 55.713 378.147 56.813 375.973 58.312 374.77 59.201 374.048 59.728 373.41 60.366 372.92 61.116 377.083 64.77 382.532 67 388.5 67 394.477 67 399.926 64.77 404.071 61.097 403.59 60.357 402.952 59.719 402.23 59.191 Z" fill="#819fde" fill-opacity="1" stroke="none"/>
 <path id="Path-162" d="M71 184 C76.524 184 81 188.476 81 194 81 196.98 79.697 199.657 77.626 201.492 75.858 203.051 73.539 204 71 204 68.457 204 66.138 203.051 64.374 201.488 62.303 199.657 61 196.98 61 194 61 188.476 65.476 184 71 184 Z" fill="#cbd5fc" fill-opacity="1" stroke="none"/>
 <path id="Path-163" d="M65.157 200.677 C65.669 200.295 66.598 199.662 67.61 199.193 68.622 198.729 69.216 197.638 69.055 196.54 69.055 196.524 69.051 196.508 69.047 196.488 69.047 196.488 66.744 194.929 67.063 193.41 67.063 193.41 66.992 193.414 66.886 193.406 65.87 193.311 65.807 191.799 66.811 191.638 66.819 191.638 66.831 191.634 66.839 191.634 L66.87 191.469 C66.563 190.394 65.815 187.138 68.079 187.453 68.079 187.453 69.705 184.764 73.142 186.059 76.583 187.351 75.685 190.433 75.685 190.433 L75.26 191.662 C76.185 191.89 76.098 193.319 75.114 193.41 75.008 193.418 74.933 193.414 74.933 193.414 75.256 194.933 72.953 196.492 72.953 196.492 72.949 196.512 72.949 196.528 72.945 196.544 72.787 197.642 73.382 198.732 74.39 199.197 75.406 199.666 76.331 200.303 76.842 200.681 77.15 200.906 77.421 201.177 77.63 201.496 75.858 203.051 73.539 204 71 204 68.457 204 66.138 203.051 64.374 201.488 64.579 201.173 64.85 200.902 65.157 200.677 Z" fill="#819fde" fill-opacity="1" stroke="none"/>
 <path id="Path-164" d="M179.5 531 C168.177 531 159 540.177 159 551.5 159 557.61 161.671 563.098 165.917 566.859 169.541 570.055 174.294 572 179.5 572 184.714 572 189.468 570.055 193.083 566.851 197.329 563.098 200 557.61 200 551.5 200 540.177 190.823 531 179.5 531 Z" fill="#cbd5fc" fill-opacity="1" stroke="none"/>
 <path id="Path-165" d="M191.477 565.188 C190.428 564.405 188.523 563.106 186.449 562.146 184.375 561.193 183.156 558.958 183.487 556.706 183.487 556.673 183.495 556.641 183.503 556.601 183.503 556.601 188.225 553.405 187.571 550.289 187.571 550.289 187.716 550.298 187.934 550.281 190.016 550.088 190.146 546.988 188.087 546.658 188.071 546.658 188.047 546.649 188.031 546.649 L187.966 546.31 C188.596 544.107 190.129 537.433 185.489 538.078 185.489 538.078 182.155 532.566 175.109 535.221 168.056 537.868 169.896 544.188 169.896 544.188 L170.767 546.706 C168.871 547.174 169.048 550.104 171.066 550.289 171.284 550.306 171.437 550.298 171.437 550.298 170.775 553.413 175.497 556.609 175.497 556.609 175.505 556.649 175.505 556.682 175.513 556.714 175.836 558.966 174.617 561.201 172.551 562.154 170.469 563.114 168.572 564.422 167.523 565.196 166.893 565.656 166.336 566.213 165.909 566.867 169.541 570.055 174.294 572 179.5 572 184.714 572 189.468 570.055 193.083 566.851 192.664 566.205 192.107 565.648 191.477 565.188 Z" fill="#819fde" fill-opacity="1" stroke="none"/>
 <path id="Path-166" d="M679.5 341 C679.5 505.305 546.305 638.5 382 638.5 217.695 638.5 84.5 505.305 84.5 341 84.5 176.695 217.695 43.5 382 43.5 546.305 43.5 679.5 176.695 679.5 341 Z" fill="none" stroke="#8a8fb9" stroke-width="1" stroke-opacity="1" stroke-linejoin="round"/>
 <path id="Path-167" d="M668.5 341.5 C668.5 500.006 540.006 628.5 381.5 628.5 222.994 628.5 94.5 500.006 94.5 341.5 94.5 182.994 222.994 54.5 381.5 54.5 540.006 54.5 668.5 182.994 668.5 341.5 Z" fill="none" stroke="#8a8fb9" stroke-width="1" stroke-opacity="1" stroke-linejoin="round"/>
 <path id="Path-168" d="M680 397.5 C680 400.538 677.538 403 674.5 403 671.462 403 669 400.538 669 397.5 669 394.462 671.462 392 674.5 392 677.538 392 680 394.462 680 397.5 Z" fill="#819fde" fill-opacity="1" stroke="none"/>
 <path id="Path-169" d="M492 572.5 C492 575.538 489.538 578 486.5 578 483.462 578 481 575.538 481 572.5 481 569.462 483.462 567 486.5 567 489.538 567 492 569.462 492 572.5 Z" fill="#819fde" fill-opacity="1" stroke="none"/>
 <path id="Path-170" d="M634.5 341 C634.5 480.452 521.452 593.5 382 593.5 242.548 593.5 129.5 480.452 129.5 341 129.5 201.548 242.548 88.5 382 88.5 521.452 88.5 634.5 201.548 634.5 341 Z" fill="none" stroke="#cbd5fc" stroke-width="1" stroke-opacity="1" stroke-linejoin="round"/>
 <path id="Path-171" d="M587.5 341.5 C587.5 451.405 498.405 540.5 388.5 540.5 278.595 540.5 189.5 451.405 189.5 341.5 189.5 231.595 278.595 142.5 388.5 142.5 498.405 142.5 587.5 231.595 587.5 341.5 Z" fill="none" stroke="#cbd5fc" stroke-width="1" stroke-opacity="1" stroke-linejoin="round"/>
 <path id="Path-172" d="M644 363 C644 367.971 639.971 372 635 372 630.029 372 626 367.971 626 363 626 358.029 630.029 354 635 354 639.971 354 644 358.029 644 363 Z" fill="#819fde" fill-opacity="1" stroke="none"/>
 <path id="Path-173" d="M247 97 C247 101.971 242.971 106 238 106 233.029 106 229 101.971 229 97 229 92.029 233.029 88 238 88 242.971 88 247 92.029 247 97 Z" fill="#819fde" fill-opacity="1" stroke="none"/>
 <path id="Path-174" d="M407 683 C407 687.971 402.971 692 398 692 393.029 692 389 687.971 389 683 389 678.029 393.029 674 398 674 402.971 674 407 678.029 407 683 Z" fill="#819fde" fill-opacity="1" stroke="none"/>
 <path id="Path-175" d="M49 332 C49 336.971 44.971 341 40 341 35.029 341 31 336.971 31 332 31 327.029 35.029 323 40 323 44.971 323 49 327.029 49 332 Z" fill="#819fde" fill-opacity="1" stroke="none"/>
 <path id="Path-176" d="M365 567 L304 567 304 597.806 347.471 597.806 343.966 610 365 597.806 Z" fill="#819fde" fill-opacity="1" stroke="none"/>
 <path id="Path-177" d="M573 115 L551 115 551 127.179 566.678 127.179 565.414 132 573 127.179 Z" fill="#819fde" fill-opacity="1" stroke="none"/>
 <path id="Path-178" d="M722.5 341.5 C722.5 529.829 569.829 682.5 381.5 682.5 193.171 682.5 40.5 529.829 40.5 341.5 40.5 153.171 193.171 0.5 381.5 0.5 569.829 0.5 722.5 153.171 722.5 341.5 Z" fill="none" stroke="#cbd5fc" stroke-width="1" stroke-opacity="1" stroke-linejoin="round"/>
 <path id="Path-179" d="M286 172 C286 173.657 284.657 175 283 175 281.343 175 280 173.657 280 172 280 170.343 281.343 169 283 169 284.657 169 286 170.343 286 172 Z" fill="#819fde" fill-opacity="1" stroke="none"/>
</svg>
