<svg width="38" height="38" viewBox="0 0 38 38" fill="none" xmlns="http://www.w3.org/2000/svg">
<g filter="url(#filter0_d_252_491)">
<circle cx="19" cy="19" r="15" fill="#EEEFFB"/>
</g>
<path d="M10.9792 14.3646C10.9792 14.2072 11.0418 14.0561 11.1532 13.9448C11.2645 13.8334 11.4155 13.7709 11.573 13.7709H12.0147C12.7668 13.7709 13.2181 14.2767 13.4754 14.747C13.6472 15.0605 13.7715 15.4239 13.8688 15.7532C13.8952 15.7511 13.9216 15.7501 13.948 15.75H23.8422C24.4993 15.75 24.9743 16.3786 24.7938 17.0112L23.3467 22.085C23.2169 22.54 22.9424 22.9405 22.5647 23.2256C22.187 23.5107 21.7267 23.665 21.2535 23.6651H16.5447C16.0677 23.6651 15.6039 23.5085 15.2246 23.2193C14.8453 22.9301 14.5714 22.5243 14.4452 22.0644L13.8435 19.8699L12.846 16.5069L12.8452 16.5005C12.7217 16.0517 12.6061 15.6313 12.4335 15.3178C12.2681 15.013 12.1351 14.9584 12.0155 14.9584H11.573C11.4155 14.9584 11.2645 14.8958 11.1532 14.7845C11.0418 14.6731 10.9792 14.5221 10.9792 14.3646ZM14.9954 19.5817L15.5899 21.7501C15.7087 22.1792 16.099 22.4776 16.5447 22.4776H21.2535C21.4686 22.4776 21.6778 22.4075 21.8495 22.278C22.0212 22.1484 22.1461 21.9664 22.2051 21.7596L23.5802 16.9375H14.2132L14.9843 19.5397L14.9954 19.5817Z" fill="#2F1AC4"/>
<path d="M17.7084 26.0417C17.7084 26.4616 17.5416 26.8644 17.2447 27.1613C16.9477 27.4582 16.545 27.625 16.1251 27.625C15.7052 27.625 15.3024 27.4582 15.0055 27.1613C14.7086 26.8644 14.5417 26.4616 14.5417 26.0417C14.5417 25.6218 14.7086 25.2191 15.0055 24.9221C15.3024 24.6252 15.7052 24.4584 16.1251 24.4584C16.545 24.4584 16.9477 24.6252 17.2447 24.9221C17.5416 25.2191 17.7084 25.6218 17.7084 26.0417ZM16.5209 26.0417C16.5209 25.9367 16.4792 25.836 16.405 25.7618C16.3307 25.6876 16.2301 25.6459 16.1251 25.6459C16.0201 25.6459 15.9194 25.6876 15.8452 25.7618C15.771 25.836 15.7292 25.9367 15.7292 26.0417C15.7292 26.1467 15.771 26.2474 15.8452 26.3216C15.9194 26.3958 16.0201 26.4375 16.1251 26.4375C16.2301 26.4375 16.3307 26.3958 16.405 26.3216C16.4792 26.2474 16.5209 26.1467 16.5209 26.0417Z" fill="#2F1AC4"/>
<path d="M23.2502 26.0417C23.2502 26.4616 23.0833 26.8644 22.7864 27.1613C22.4895 27.4582 22.0868 27.625 21.6668 27.625C21.2469 27.625 20.8442 27.4582 20.5472 27.1613C20.2503 26.8644 20.0835 26.4616 20.0835 26.0417C20.0835 25.6218 20.2503 25.2191 20.5472 24.9221C20.8442 24.6252 21.2469 24.4584 21.6668 24.4584C22.0868 24.4584 22.4895 24.6252 22.7864 24.9221C23.0833 25.2191 23.2502 25.6218 23.2502 26.0417ZM22.0627 26.0417C22.0627 25.9367 22.021 25.836 21.9467 25.7618C21.8725 25.6876 21.7718 25.6459 21.6668 25.6459C21.5618 25.6459 21.4612 25.6876 21.3869 25.7618C21.3127 25.836 21.271 25.9367 21.271 26.0417C21.271 26.1467 21.3127 26.2474 21.3869 26.3216C21.4612 26.3958 21.5618 26.4375 21.6668 26.4375C21.7718 26.4375 21.8725 26.3958 21.9467 26.3216C22.021 26.2474 22.0627 26.1467 22.0627 26.0417Z" fill="#2F1AC4"/>
<defs>
<filter id="filter0_d_252_491" x="0" y="0" width="38" height="38" filterUnits="userSpaceOnUse" color-interpolation-filters="sRGB">
<feFlood flood-opacity="0" result="BackgroundImageFix"/>
<feColorMatrix in="SourceAlpha" type="matrix" values="0 0 0 0 0 0 0 0 0 0 0 0 0 0 0 0 0 0 127 0" result="hardAlpha"/>
<feOffset/>
<feGaussianBlur stdDeviation="2"/>
<feColorMatrix type="matrix" values="0 0 0 0 0 0 0 0 0 0 0 0 0 0 0 0 0 0 0.05 0"/>
<feBlend mode="normal" in2="BackgroundImageFix" result="effect1_dropShadow_252_491"/>
<feBlend mode="normal" in="SourceGraphic" in2="effect1_dropShadow_252_491" result="shape"/>
</filter>
</defs>
</svg>
