<svg width="17" height="17" viewBox="0 0 17 17" fill="none" xmlns="http://www.w3.org/2000/svg">
<path d="M14.28 3.26545C13.528 2.5132 12.531 2.05585 11.4702 1.97655C10.4095 1.89726 9.35555 2.20129 8.50003 2.83336C7.59879 2.16302 6.47703 1.85906 5.36064 1.98268C4.24426 2.10631 3.21618 2.64833 2.48343 3.49961C1.75068 4.35089 1.3677 5.44819 1.4116 6.57054C1.4555 7.69289 1.92303 8.75692 2.72003 9.54836L7.99712 14.8254C8.06296 14.8918 8.14131 14.9445 8.22762 14.9805C8.31394 15.0165 8.40652 15.035 8.50003 15.035C8.59354 15.035 8.68612 15.0165 8.77244 14.9805C8.85876 14.9445 8.9371 14.8918 9.00295 14.8254L14.28 9.54836C14.6927 9.13592 15.0201 8.64619 15.2435 8.10716C15.4669 7.56814 15.5819 6.99038 15.5819 6.40691C15.5819 5.82343 15.4669 5.24567 15.2435 4.70665C15.0201 4.16762 14.6927 3.67789 14.28 3.26545ZM13.2813 8.54961L8.50003 13.3238L3.71878 8.54961C3.29745 8.12652 3.01043 7.58844 2.89374 7.00285C2.77704 6.41727 2.83587 5.81026 3.06283 5.25798C3.2898 4.7057 3.67479 4.23274 4.16953 3.89843C4.66426 3.56412 5.2467 3.38334 5.84378 3.37878C6.64145 3.38073 7.40573 3.69919 7.96878 4.2642C8.03463 4.33059 8.11297 4.38328 8.19929 4.41925C8.28561 4.45521 8.37819 4.47372 8.4717 4.47372C8.56521 4.47372 8.65779 4.45521 8.74411 4.41925C8.83042 4.38328 8.90877 4.33059 8.97462 4.2642C9.55426 3.76191 10.3031 3.49859 11.0695 3.52755C11.836 3.5565 12.5628 3.87557 13.1029 4.42016C13.643 4.96476 13.956 5.69421 13.9786 6.46087C14.0012 7.22754 13.7317 7.97416 13.2246 8.54961H13.2813Z" fill="url(#paint0_linear_252_487)"/>
<defs>
<linearGradient id="paint0_linear_252_487" x1="1.4082" y1="1.95569" x2="14.4454" y2="16.0837" gradientUnits="userSpaceOnUse">
<stop stop-color="#1389FF"/>
<stop offset="1" stop-color="#1DB4E7"/>
</linearGradient>
</defs>
</svg>
