<svg width="15" height="15" viewBox="0 0 15 15" fill="none" xmlns="http://www.w3.org/2000/svg">
<path d="M9.37512 6.24988H7.50012V4.37488C7.50012 4.20912 7.43428 4.05015 7.31707 3.93294C7.19985 3.81573 7.04088 3.74988 6.87512 3.74988C6.70936 3.74988 6.55039 3.81573 6.43318 3.93294C6.31597 4.05015 6.25012 4.20912 6.25012 4.37488V6.24988H4.37512C4.20936 6.24988 4.05039 6.31573 3.93318 6.43294C3.81597 6.55015 3.75012 6.70912 3.75012 6.87488C3.75012 7.04064 3.81597 7.19961 3.93318 7.31682C4.05039 7.43403 4.20936 7.49988 4.37512 7.49988H6.25012V9.37488C6.25012 9.54064 6.31597 9.69961 6.43318 9.81682C6.55039 9.93403 6.70936 9.99988 6.87512 9.99988C7.04088 9.99988 7.19985 9.93403 7.31707 9.81682C7.43428 9.69961 7.50012 9.54064 7.50012 9.37488V7.49988H9.37512C9.54088 7.49988 9.69985 7.43403 9.81707 7.31682C9.93428 7.19961 10.0001 7.04064 10.0001 6.87488C10.0001 6.70912 9.93428 6.55015 9.81707 6.43294C9.69985 6.31573 9.54088 6.24988 9.37512 6.24988ZM13.5689 12.6811L11.2501 10.3811C12.1502 9.25889 12.5861 7.83444 12.4681 6.40069C12.3502 4.96694 11.6874 3.63287 10.6161 2.67278C9.54473 1.7127 8.14625 1.19957 6.7082 1.23892C5.27015 1.27827 3.90182 1.86711 2.88459 2.88434C1.86735 3.90158 1.27852 5.2699 1.23917 6.70796C1.19982 8.14601 1.71294 9.54449 2.67303 10.6158C3.63311 11.6872 4.96719 12.35 6.40094 12.4679C7.83468 12.5858 9.25913 12.1499 10.3814 11.2499L12.6814 13.5499C12.7395 13.6085 12.8086 13.655 12.8848 13.6867C12.9609 13.7184 13.0426 13.7348 13.1251 13.7348C13.2076 13.7348 13.2893 13.7184 13.3655 13.6867C13.4416 13.655 13.5108 13.6085 13.5689 13.5499C13.6815 13.4333 13.7445 13.2776 13.7445 13.1155C13.7445 12.9534 13.6815 12.7977 13.5689 12.6811ZM6.87512 11.2499C6.00983 11.2499 5.16397 10.9933 4.4445 10.5126C3.72504 10.0318 3.16428 9.34855 2.83315 8.54912C2.50202 7.74969 2.41538 6.87003 2.58419 6.02136C2.753 5.17269 3.16968 4.39314 3.78153 3.78129C4.39339 3.16943 5.17294 2.75275 6.0216 2.58394C6.87027 2.41513 7.74994 2.50177 8.54936 2.83291C9.34879 3.16404 10.0321 3.72479 10.5128 4.44426C10.9935 5.16372 11.2501 6.00959 11.2501 6.87488C11.2501 8.0352 10.7892 9.148 9.96872 9.96847C9.14824 10.7889 8.03545 11.2499 6.87512 11.2499Z" fill="#2F1AC4"/>
</svg>
