<svg width="17" height="17" viewBox="0 0 17 17" fill="none" xmlns="http://www.w3.org/2000/svg">
<path d="M14.28 3.26533C13.528 2.51308 12.531 2.05572 11.4702 1.97643C10.4095 1.89713 9.35555 2.20117 8.50003 2.83324C7.59879 2.1629 6.47703 1.85894 5.36064 1.98256C4.24426 2.10618 3.21618 2.64821 2.48343 3.49949C1.75068 4.35077 1.3677 5.44807 1.4116 6.57042C1.4555 7.69277 1.92303 8.7568 2.72003 9.54824L7.99712 14.8253C8.06296 14.8917 8.14131 14.9444 8.22762 14.9804C8.31394 15.0163 8.40652 15.0348 8.50003 15.0348C8.59354 15.0348 8.68612 15.0163 8.77244 14.9804C8.85876 14.9444 8.9371 14.8917 9.00295 14.8253L14.28 9.54824C14.6927 9.1358 15.0201 8.64607 15.2435 8.10704C15.4669 7.56802 15.5819 6.99026 15.5819 6.40678C15.5819 5.82331 15.4669 5.24555 15.2435 4.70652C15.0201 4.1675 14.6927 3.67777 14.28 3.26533ZM13.2813 8.54949L8.50003 13.3237L3.71878 8.54949C3.29745 8.1264 3.01043 7.58832 2.89374 7.00273C2.77704 6.41715 2.83587 5.81014 3.06283 5.25786C3.2898 4.70558 3.67479 4.23262 4.16953 3.89831C4.66426 3.564 5.2467 3.38322 5.84378 3.37866C6.64145 3.38061 7.40573 3.69906 7.96878 4.26408C8.03463 4.33047 8.11297 4.38316 8.19929 4.41912C8.28561 4.45508 8.37819 4.4736 8.4717 4.4736C8.56521 4.4736 8.65779 4.45508 8.74411 4.41912C8.83042 4.38316 8.90877 4.33047 8.97462 4.26408C9.55426 3.76178 10.3031 3.49847 11.0695 3.52743C11.836 3.55638 12.5628 3.87545 13.1029 4.42004C13.643 4.96464 13.956 5.69409 13.9786 6.46075C14.0012 7.22742 13.7317 7.97403 13.2246 8.54949H13.2813Z" fill="#2F1AC4"/>
</svg>
