<?xml version="1.0" encoding="UTF-8"?>
<svg width="94px" height="28px" viewBox="0 0 94 28" xmlns="http://www.w3.org/2000/svg" xmlns:xlink="http://www.w3.org/1999/xlink" version="1.1">
 <!-- Generated by Pixelmator Pro 1.8 -->
 <path id="Path" d="M21.276 1.976 L21.276 27 16.346 27 16.346 16.834 5.16 16.834 5.16 27 0.23 27 0.23 1.976 5.16 1.976 5.16 12.074 16.346 12.074 16.346 1.976 Z M34.25 27.408 C32.437 27.408 30.896 27.068 29.626 26.388 28.379 25.708 27.427 24.767 26.77 23.566 26.113 22.365 25.784 20.982 25.784 19.418 25.784 17.922 26.169 16.573 26.94 15.372 27.711 14.171 28.742 13.219 30.034 12.516 31.326 11.791 32.765 11.428 34.352 11.428 36.483 11.428 38.228 12.051 39.588 13.298 40.971 14.522 41.866 16.301 42.274 18.636 L30.714 22.308 29.66 19.724 38.024 16.902 37.038 17.344 C36.857 16.755 36.528 16.245 36.052 15.814 35.599 15.361 34.907 15.134 33.978 15.134 33.276 15.134 32.652 15.304 32.108 15.644 31.587 15.961 31.179 16.426 30.884 17.038 30.612 17.627 30.476 18.33 30.476 19.146 30.476 20.075 30.646 20.857 30.986 21.492 31.326 22.104 31.791 22.569 32.38 22.886 32.969 23.203 33.627 23.362 34.352 23.362 34.874 23.362 35.372 23.271 35.848 23.09 36.347 22.909 36.834 22.671 37.31 22.376 L39.418 25.912 C38.625 26.365 37.764 26.728 36.834 27 35.927 27.272 35.066 27.408 34.25 27.408 Z M45.733 27 L45.733 0.174 50.493 0.174 50.493 27 Z M54.267 16.902 L60.999 27 55.457 27 51.139 19.622 Z M49.065 22.886 L48.589 18.364 57.565 11.768 60.455 14.318 Z M65.688 5.614 L70.448 5.614 70.448 12.074 74.052 12.074 74.052 15.78 70.448 15.78 70.448 27 65.688 27 65.688 15.78 63.376 15.78 63.376 12.074 65.688 12.074 Z M76.519 19.384 C76.519 17.865 76.87 16.505 77.573 15.304 78.298 14.103 79.307 13.162 80.599 12.482 81.891 11.779 83.375 11.428 85.053 11.428 86.753 11.428 88.226 11.779 89.473 12.482 90.719 13.162 91.671 14.103 92.329 15.304 93.009 16.505 93.349 17.865 93.349 19.384 93.349 20.903 93.009 22.274 92.329 23.498 91.671 24.699 90.719 25.651 89.473 26.354 88.226 27.057 86.73 27.408 84.985 27.408 83.353 27.408 81.891 27.091 80.599 26.456 79.329 25.821 78.332 24.903 77.607 23.702 76.881 22.501 76.519 21.061 76.519 19.384 Z M81.313 19.418 C81.313 20.189 81.471 20.891 81.789 21.526 82.106 22.138 82.537 22.625 83.081 22.988 83.625 23.351 84.237 23.532 84.917 23.532 85.665 23.532 86.311 23.351 86.855 22.988 87.399 22.625 87.818 22.138 88.113 21.526 88.407 20.891 88.555 20.189 88.555 19.418 88.555 18.625 88.407 17.922 88.113 17.31 87.818 16.698 87.399 16.211 86.855 15.848 86.311 15.485 85.665 15.304 84.917 15.304 84.237 15.304 83.625 15.485 83.081 15.848 82.537 16.211 82.106 16.698 81.789 17.31 81.471 17.922 81.313 18.625 81.313 19.418 Z" fill="#0d0e43" fill-opacity="1" stroke="none"/>
</svg>
