<svg width="20" height="20" viewBox="0 0 20 20" fill="none" xmlns="http://www.w3.org/2000/svg">
<circle cx="10" cy="9.70874" r="9.70874" fill="#151875"/>
<path d="M14.2446 7.40715C14.2393 7.01499 14.1659 6.62671 14.0276 6.25971C13.9077 5.95015 13.7245 5.669 13.4897 5.43425C13.255 5.1995 12.9738 5.01629 12.6642 4.89635C12.302 4.76035 11.9192 4.68681 11.5323 4.67887C11.0342 4.6566 10.8763 4.65039 9.61182 4.65039C8.34735 4.65039 8.18528 4.65039 7.69079 4.67887C7.30407 4.68687 6.92152 4.76041 6.55939 4.89635C6.24978 5.01621 5.9686 5.19938 5.73383 5.43415C5.49907 5.66891 5.31589 5.9501 5.19603 6.25971C5.05976 6.62172 4.98638 7.00436 4.97907 7.3911C4.9568 7.88974 4.95007 8.04767 4.95007 9.31214C4.95007 10.5766 4.95007 10.7382 4.97907 11.2332C4.98684 11.6205 5.05985 12.0026 5.19603 12.3656C5.31609 12.6751 5.4994 12.9562 5.73425 13.1909C5.96909 13.4255 6.2503 13.6086 6.55991 13.7284C6.92104 13.8699 7.30366 13.9487 7.6913 13.9615C8.18994 13.9837 8.34787 13.9905 9.61234 13.9905C10.8768 13.9905 11.0389 13.9905 11.5334 13.9615C11.9202 13.9538 12.303 13.8805 12.6653 13.7445C12.9748 13.6244 13.2558 13.4412 13.4906 13.2064C13.7253 12.9717 13.9086 12.6906 14.0286 12.3811C14.1648 12.0187 14.2378 11.6365 14.2456 11.2487C14.2679 10.7506 14.2746 10.5927 14.2746 9.32767C14.2736 8.06321 14.2736 7.90269 14.2446 7.40715ZM9.60871 11.7033C8.28625 11.7033 7.21493 10.632 7.21493 9.30955C7.21493 7.98709 8.28625 6.91576 9.60871 6.91576C10.2436 6.91576 10.8525 7.16796 11.3014 7.61689C11.7503 8.06581 12.0025 8.67468 12.0025 9.30955C12.0025 9.94442 11.7503 10.5533 11.3014 11.0022C10.8525 11.4511 10.2436 11.7033 9.60871 11.7033ZM12.0978 7.38541C11.7886 7.38541 11.5396 7.13583 11.5396 6.82722C11.5396 6.75395 11.554 6.6814 11.5821 6.61371C11.6101 6.54602 11.6512 6.48451 11.703 6.4327C11.7548 6.3809 11.8163 6.3398 11.884 6.31176C11.9517 6.28372 12.0242 6.26929 12.0975 6.26929C12.1708 6.26929 12.2433 6.28372 12.311 6.31176C12.3787 6.3398 12.4402 6.3809 12.492 6.4327C12.5438 6.48451 12.5849 6.54602 12.613 6.61371C12.641 6.6814 12.6554 6.75395 12.6554 6.82722C12.6554 7.13583 12.4059 7.38541 12.0978 7.38541Z" fill="white"/>
<path d="M9.60878 10.8638C10.4676 10.8638 11.1637 10.1676 11.1637 9.30886C11.1637 8.45008 10.4676 7.75391 9.60878 7.75391C8.75001 7.75391 8.05383 8.45008 8.05383 9.30886C8.05383 10.1676 8.75001 10.8638 9.60878 10.8638Z" fill="white"/>
</svg>
