<?xml version="1.0" encoding="UTF-8"?>
<svg width="16px" height="10px" viewBox="0 0 16 10" xmlns="http://www.w3.org/2000/svg" xmlns:xlink="http://www.w3.org/1999/xlink" version="1.1">
 <!-- Generated by Pixelmator Pro 1.8 -->
 <path id="Path" d="M12.667 -0.333 L3.333 -0.333 C2.803 -0.333 2.294 -0.123 1.919 0.252 1.544 0.628 1.333 1.136 1.333 1.667 L1.333 8.333 C1.333 8.864 1.544 9.372 1.919 9.747 2.294 10.123 2.803 10.333 3.333 10.333 L12.667 10.333 C13.197 10.333 13.706 10.123 14.081 9.747 14.456 9.372 14.667 8.864 14.667 8.333 L14.667 1.667 C14.667 1.136 14.456 0.628 14.081 0.252 13.706 -0.123 13.197 -0.333 12.667 -0.333 Z M3.333 1 L12.667 1 C12.843 1 13.013 1.07 13.138 1.195 13.263 1.32 13.333 1.49 13.333 1.667 L8 4.92 2.667 1.667 C2.667 1.49 2.737 1.32 2.862 1.195 2.987 1.07 3.156 1 3.333 1 Z M13.333 8.333 C13.333 8.51 13.263 8.68 13.138 8.805 13.013 8.93 12.843 9 12.667 9 L3.333 9 C3.156 9 2.987 8.93 2.862 8.805 2.737 8.68 2.667 8.51 2.667 8.333 L2.667 3.187 7.653 6.233 C7.755 6.292 7.87 6.323 7.987 6.323 8.104 6.323 8.219 6.292 8.32 6.233 L13.333 3.187 Z" fill="#ffffff" fill-opacity="1" stroke="none"/>
</svg>
