<?xml version="1.0" encoding="UTF-8"?>
<svg width="16px" height="14px" viewBox="0 0 16 14" xmlns="http://www.w3.org/2000/svg" xmlns:xlink="http://www.w3.org/1999/xlink" version="1.1">
 <!-- Generated by Pixelmator Pro 1.8 -->
 <path id="Path" d="M11.044 13.666 L11.063 13.666 C11.415 13.666 11.747 13.527 11.999 13.275 L13.807 11.467 C13.869 11.406 13.918 11.332 13.952 11.251 13.986 11.17 14.003 11.084 14.003 10.996 14.003 10.909 13.986 10.822 13.952 10.741 13.918 10.66 13.869 10.587 13.807 10.525 L11.141 7.858 C11.079 7.796 11.005 7.747 10.924 7.713 10.844 7.68 10.757 7.663 10.669 7.663 10.582 7.663 10.495 7.68 10.414 7.713 10.333 7.747 10.26 7.796 10.198 7.858 L9.135 8.921 C8.643 8.774 7.723 8.441 7.141 7.858 6.558 7.275 6.225 6.356 6.078 5.863 L7.141 4.801 C7.203 4.739 7.252 4.665 7.285 4.584 7.319 4.504 7.336 4.417 7.336 4.329 7.336 4.242 7.319 4.155 7.285 4.074 7.252 3.993 7.203 3.92 7.141 3.858 L4.474 1.191 C4.347 1.071 4.178 1.004 4.003 1.004 3.827 1.004 3.659 1.071 3.531 1.191 L1.724 2.999 C1.471 3.253 1.328 3.601 1.333 3.956 1.349 4.905 1.6 8.203 4.199 10.801 6.797 13.4 10.095 13.651 11.044 13.666 Z M4.003 2.605 L5.727 4.329 4.865 5.191 C4.787 5.27 4.729 5.366 4.698 5.472 4.666 5.579 4.662 5.691 4.685 5.799 4.701 5.876 5.092 7.694 6.199 8.801 7.305 9.907 9.123 10.299 9.2 10.315 9.308 10.338 9.421 10.333 9.527 10.302 9.633 10.27 9.73 10.213 9.808 10.134 L10.67 9.272 12.394 10.996 11.057 12.333 C10.225 12.319 7.378 12.095 5.141 9.858 2.897 7.614 2.68 4.757 2.667 3.942 Z M13.333 6.333 L14.666 6.333 C14.666 2.913 12.084 0.333 8.659 0.333 L8.659 1.667 C11.367 1.667 13.333 3.629 13.333 6.333 Z" fill="#ffffff" fill-opacity="1" stroke="none"/>
 <path id="Path-1" d="M8.666 4.333 C10.068 4.333 10.666 4.931 10.666 6.333 L11.999 6.333 C11.999 4.183 10.816 3 8.666 3 Z" fill="#ffffff" fill-opacity="1" stroke="none"/>
</svg>
