<svg width="87" height="59" viewBox="0 0 87 59" fill="none" xmlns="http://www.w3.org/2000/svg">
<path d="M1.09968 44.7253C1.49968 50.3253 4.93301 55.7253 6.59968 57.7253C7.09975 52.2253 19.5996 48.7253 22.0996 48.7253C24.0996 48.7253 37.9329 44.7253 44.5996 42.7253C53.9329 39.7253 75.0996 32.6254 85.0996 28.2254C88.5996 10.7254 79.0996 -0.774631 78.5996 1.22537C78.1996 2.82537 65.7663 7.55868 59.5996 9.72535C47.4329 14.2253 21.0996 23.5253 13.0996 24.7253C5.09961 25.9253 2.43299 28.892 2.09968 30.2253C1.59968 32.7253 0.69968 39.1253 1.09968 44.7253Z" fill="#3F509E" stroke="#3F509E"/>
<path d="M35.309 27.3464C34.905 27.2822 34.4876 27.2518 34.0566 27.2554C33.6228 27.25 33.2285 27.3054 32.8736 27.4215C32.3946 27.5782 32.048 27.8095 31.8338 28.1153C31.6285 28.4182 31.5868 28.7559 31.7087 29.1284C31.7958 29.3945 31.9658 29.5991 32.2189 29.7422C32.4779 29.8735 32.7829 29.9652 33.1338 30.0173C33.4907 30.0577 33.8595 30.0892 34.2401 30.112C34.5677 30.1226 34.898 30.1569 35.2312 30.2148C35.5704 30.261 35.8901 30.3528 36.1904 30.4902C36.4907 30.6276 36.7596 30.8342 36.9972 31.11C37.2318 31.377 37.4246 31.7411 37.5756 32.2023C37.741 32.7079 37.7648 33.2157 37.6469 33.7257C37.5349 34.2239 37.2801 34.6755 36.8823 35.0806C36.4846 35.4858 35.9442 35.8001 35.2612 36.0236C34.8531 36.1571 34.4394 36.2433 34.0201 36.2823C33.6096 36.3185 33.2068 36.3177 32.8115 36.2801C32.4133 36.2336 32.0359 36.1607 31.6793 36.0614L31.975 34.6241C32.2401 34.7141 32.532 34.7807 32.8505 34.8238C33.169 34.8668 33.4877 34.8804 33.8066 34.8644C34.1254 34.8485 34.4135 34.7984 34.6707 34.7143C34.9457 34.6243 35.2017 34.4914 35.4388 34.3156C35.6819 34.1281 35.8587 33.9032 35.9694 33.6412C36.0889 33.3762 36.0935 33.0752 35.9832 32.7381C35.8932 32.4631 35.7365 32.2542 35.513 32.1113C35.2983 31.9654 35.0391 31.8637 34.7355 31.8059C34.4289 31.7393 34.1059 31.6977 33.7666 31.681C33.4272 31.6644 33.0791 31.6359 32.7222 31.5956C32.3653 31.5552 32.016 31.478 31.6742 31.364C31.3385 31.2382 31.037 31.0521 30.7697 30.8056C30.5025 30.5592 30.2963 30.2142 30.1512 29.7706C29.977 29.2384 29.9503 28.7365 30.071 28.2649C30.1916 27.7934 30.4315 27.3711 30.7907 26.9983C31.1588 26.6225 31.6282 26.3314 32.199 26.125C32.882 25.9015 33.4906 25.7957 34.0248 25.8075C34.5649 25.8075 35.059 25.8619 35.507 25.9706L35.309 27.3464ZM42.5928 33.6687C42.0695 33.84 41.5542 33.8858 41.047 33.8063C40.5486 33.7239 40.1041 33.5059 39.7135 33.1526C39.32 32.7903 39.0173 32.2854 38.8054 31.6379C38.5965 30.9992 38.5466 30.4116 38.6558 29.875C38.771 29.3266 39.0008 28.8586 39.3453 28.4709C39.6987 28.0803 40.1282 27.8023 40.6338 27.6368C41.1749 27.4598 41.6459 27.4284 42.0467 27.5428C42.4534 27.6454 42.7963 27.8082 43.0755 28.0311L43.0653 28.2701L42.8721 27.1843L44.2426 26.7359L46.0843 32.3642L44.594 32.8519L44.1456 31.4814L44.4095 31.7927C44.4003 31.8547 44.3584 31.9666 44.2837 32.1285C44.215 32.2787 44.1107 32.4552 43.9709 32.6581C43.831 32.8609 43.6484 33.0533 43.4231 33.235C43.2067 33.4139 42.9299 33.5584 42.5928 33.6687ZM42.6048 32.3096C42.8797 32.2196 43.1122 32.0896 43.302 31.9194C43.4918 31.7493 43.6331 31.5509 43.7259 31.3241C43.8186 31.0973 43.8598 30.8482 43.8495 30.5766L43.449 29.3524C43.3025 29.145 43.1219 28.9832 42.9071 28.8669C42.6894 28.7417 42.4492 28.6681 42.1867 28.646C41.933 28.621 41.6686 28.6534 41.3937 28.7434C41.0832 28.845 40.824 29.0133 40.6161 29.2483C40.4171 29.4803 40.2813 29.7556 40.2087 30.0739C40.1449 30.3894 40.1697 30.7201 40.2829 31.066C40.3932 31.4031 40.5731 31.683 40.8228 31.9058C41.0724 32.1285 41.3565 32.2762 41.6748 32.3488C41.9932 32.4214 42.3032 32.4083 42.6048 32.3096ZM44.7331 21.3166L46.2234 20.829L49.6194 31.2075L48.1291 31.6951L44.7331 21.3166ZM54.3991 29.8055C53.7338 30.0232 53.124 30.0804 52.5697 29.977C52.0154 29.8735 51.54 29.6363 51.1436 29.2652C50.7472 28.894 50.4532 28.4157 50.2617 27.8303C50.0788 27.2714 50.0553 26.7194 50.1911 26.1741C50.324 25.62 50.5865 25.1315 50.9784 24.7086C51.3763 24.274 51.868 23.9609 52.4534 23.7693C53.2252 23.5168 53.9334 23.5354 54.5782 23.8253C55.229 24.1034 55.7721 24.6229 56.2077 25.3838L52.1711 28.3987L51.5509 27.6736L54.6899 25.2471L54.4272 25.5245C54.2514 25.2874 54.0207 25.1076 53.7351 24.985C53.4465 24.8536 53.1071 24.8517 52.7168 24.9794C52.4064 25.081 52.156 25.2464 51.9659 25.4755C51.7757 25.7047 51.6532 25.9756 51.5984 26.2881C51.5495 26.5889 51.5831 26.9167 51.6992 27.2715C51.8211 27.6441 52.0024 27.9432 52.2432 28.1688C52.4811 28.3856 52.7533 28.5273 53.0599 28.5939C53.3636 28.6517 53.6795 28.6269 54.0078 28.5195C54.2384 28.444 54.4427 28.333 54.6206 28.1864C54.8073 28.0369 54.9765 27.8637 55.1281 27.6668L56.1681 28.5491C55.9363 28.8312 55.6619 29.0879 55.3448 29.3193C55.0337 29.539 54.7185 29.701 54.3991 29.8055Z" fill="#EEEFFB"/>
</svg>
