<?xml version="1.0" encoding="UTF-8"?>
<svg width="51px" height="40px" viewBox="0 0 51 40" xmlns="http://www.w3.org/2000/svg" xmlns:xlink="http://www.w3.org/1999/xlink" version="1.1">
 <!-- Generated by Pixelmator Pro 1.8 -->
 <path id="Path" d="M0 0 L51 0 51 40 0 40 Z" fill="#fb2e86" fill-opacity="1" stroke="none"/>
 <defs>
  <linearGradient id="linear-gradient" gradientUnits="userSpaceOnUse" x1="15.98" y1="9.979" x2="39.43" y2="24.376">
   <stop offset="0" stop-color="#f3f9ff" stop-opacity="1"/>
   <stop offset="1" stop-color="#f1f0ff" stop-opacity="1"/>
  </linearGradient>
 </defs>
 <path id="Path-1" d="M35.71 28.29 L32 24.61 C33.44 22.814 34.14 20.535 33.95 18.241 33.76 15.947 32.7 13.813 30.99 12.277 29.27 10.74 27.03 9.919 24.73 9.982 22.43 10.045 20.24 10.987 18.62 12.615 16.99 14.243 16.05 16.432 15.98 18.733 15.92 21.034 16.74 23.271 18.28 24.985 19.81 26.7 21.95 27.76 24.24 27.949 26.54 28.137 28.81 27.44 30.61 26 L34.29 29.68 C34.38 29.774 34.49 29.848 34.62 29.899 34.74 29.95 34.87 29.976 35 29.976 35.13 29.976 35.26 29.95 35.38 29.899 35.51 29.848 35.62 29.774 35.71 29.68 35.89 29.493 35.99 29.244 35.99 28.985 35.99 28.726 35.89 28.476 35.71 28.29 Z M25 26 C23.62 26 22.26 25.589 21.11 24.82 19.96 24.051 19.06 22.958 18.53 21.679 18 20.4 17.86 18.992 18.13 17.634 18.4 16.276 19.07 15.029 20.05 14.05 21.03 13.071 22.28 12.404 23.63 12.134 24.99 11.864 26.4 12.003 27.68 12.533 28.96 13.063 30.05 13.96 30.82 15.111 31.59 16.262 32 17.615 32 19 32 20.856 31.26 22.637 29.95 23.95 28.64 25.262 26.86 26 25 26 Z" fill-opacity="1" fill="url(#linear-gradient)" stroke="none"/>
</svg>
