<svg width="8" height="8" viewBox="0 0 8 8" fill="none" xmlns="http://www.w3.org/2000/svg">
<path d="M0 3C0 1.34315 1.34315 0 3 0H5C6.65685 0 8 1.34315 8 3V5C8 6.65685 6.65685 8 5 8H3C1.34315 8 0 6.65685 0 5V3Z" fill="#19D16F"/>
<path d="M6.23661 2.40329C6.20562 2.37204 6.16875 2.34725 6.12813 2.33032C6.08751 2.3134 6.04395 2.30469 5.99994 2.30469C5.95594 2.30469 5.91237 2.3134 5.87175 2.33032C5.83113 2.34725 5.79426 2.37204 5.76328 2.40329L3.27994 4.88995L2.23661 3.84329C2.20444 3.81221 2.16645 3.78777 2.12484 3.77137C2.08322 3.75497 2.03878 3.74692 1.99405 3.7477C1.94932 3.74847 1.90519 3.75805 1.86416 3.77588C1.82313 3.79371 1.78602 3.81945 1.75494 3.85162C1.72386 3.88379 1.69943 3.92177 1.68302 3.96339C1.66662 4.00501 1.65858 4.04945 1.65935 4.09418C1.66013 4.13891 1.6697 4.18304 1.68753 4.22407C1.70536 4.2651 1.7311 4.30221 1.76328 4.33329L3.04328 5.61329C3.07426 5.64453 3.11113 5.66933 3.15175 5.68625C3.19237 5.70317 3.23594 5.71189 3.27994 5.71189C3.32395 5.71189 3.36752 5.70317 3.40813 5.68625C3.44875 5.66933 3.48562 5.64453 3.51661 5.61329L6.23661 2.89329C6.27044 2.86207 6.29745 2.82419 6.31592 2.78202C6.33438 2.73986 6.34392 2.69432 6.34392 2.64829C6.34392 2.60225 6.33438 2.55672 6.31592 2.51455C6.29745 2.47238 6.27044 2.4345 6.23661 2.40329V2.40329Z" fill="white"/>
</svg>
