<svg width="20" height="20" viewBox="0 0 20 20" fill="none" xmlns="http://www.w3.org/2000/svg">
<circle cx="10.2913" cy="9.70874" r="9.70874" fill="#151875"/>
<path d="M15.9321 5.66303C15.4997 5.85461 15.0352 5.98406 14.547 6.04257C15.0508 5.74111 15.4277 5.26664 15.6074 4.70769C15.1341 4.98885 14.616 5.18675 14.0758 5.2928C13.7125 4.9049 13.2313 4.64779 12.7069 4.5614C12.1825 4.475 11.6442 4.56415 11.1757 4.815C10.7072 5.06586 10.3346 5.46438 10.1157 5.9487C9.89688 6.43302 9.84407 6.97604 9.96548 7.49345C9.00635 7.44529 8.06807 7.196 7.21152 6.76175C6.35498 6.3275 5.59931 5.718 4.99357 4.9728C4.78645 5.33008 4.66735 5.74432 4.66735 6.18549C4.66712 6.58264 4.76492 6.9737 4.95208 7.32399C5.13924 7.67428 5.40996 7.97295 5.74023 8.19351C5.35721 8.18133 4.98263 8.07783 4.64768 7.89164V7.9227C4.64764 8.47972 4.84032 9.0196 5.19301 9.45073C5.54571 9.88186 6.03671 10.1777 6.58269 10.288C6.22737 10.3842 5.85484 10.3983 5.49324 10.3294C5.64729 10.8087 5.94735 11.2278 6.35143 11.5281C6.7555 11.8284 7.24336 11.9948 7.74671 12.004C6.89225 12.6748 5.837 13.0386 4.75072 13.037C4.5583 13.0371 4.36603 13.0258 4.17493 13.0034C5.27757 13.7123 6.56112 14.0886 7.87201 14.0871C12.3096 14.0871 14.7354 10.4118 14.7354 7.22419C14.7354 7.12063 14.7329 7.01604 14.7282 6.91248C15.2001 6.57123 15.6074 6.14867 15.931 5.66458L15.9321 5.66303Z" fill="white"/>
</svg>
