<?xml version="1.0" encoding="UTF-8"?>
<svg width="10px" height="16px" viewBox="0 0 10 16" xmlns="http://www.w3.org/2000/svg" xmlns:xlink="http://www.w3.org/1999/xlink" version="1.1">
 <!-- Generated by Pixelmator Pro 1.8 -->
 <path id="Path" d="M5 2 C5.494 2 5.978 2.147 6.389 2.421 6.8 2.696 7.12 3.086 7.31 3.543 7.499 4 7.548 4.503 7.452 4.988 7.356 5.473 7.117 5.918 6.768 6.268 6.418 6.617 5.973 6.856 5.488 6.952 5.003 7.048 4.5 6.999 4.043 6.81 3.586 6.62 3.196 6.3 2.921 5.889 2.647 5.478 2.5 4.994 2.5 4.5 2.5 3.837 2.763 3.201 3.232 2.732 3.701 2.263 4.337 2 5 2 Z M5 1 C4.308 1 3.631 1.205 3.056 1.59 2.48 1.974 2.031 2.521 1.766 3.161 1.502 3.8 1.432 4.504 1.567 5.183 1.702 5.862 2.036 6.485 2.525 6.975 3.015 7.464 3.638 7.798 4.317 7.933 4.996 8.068 5.7 7.998 6.339 7.734 6.979 7.469 7.526 7.02 7.91 6.444 8.295 5.869 8.5 5.192 8.5 4.5 8.5 3.572 8.131 2.681 7.475 2.025 6.819 1.369 5.928 1 5 1 Z" fill="#ffffff" fill-opacity="1" stroke="none"/>
 <path id="Path-1" d="M10 15 L9 15 9 12.5 C9 12.172 8.935 11.847 8.81 11.543 8.684 11.24 8.5 10.964 8.268 10.732 8.036 10.5 7.76 10.316 7.457 10.19 7.153 10.065 6.828 10 6.5 10 L3.5 10 C2.837 10 2.201 10.263 1.732 10.732 1.263 11.201 1 11.837 1 12.5 L1 15 0 15 0 12.5 C0 11.572 0.369 10.681 1.025 10.025 1.681 9.369 2.572 9 3.5 9 L6.5 9 C7.428 9 8.318 9.369 8.975 10.025 9.631 10.682 10 11.572 10 12.5 Z" fill="#ffffff" fill-opacity="1" stroke="none"/>
</svg>
