<?xml version="1.0" encoding="UTF-8"?>
<svg width="14px" height="12px" viewBox="0 0 14 12" xmlns="http://www.w3.org/2000/svg" xmlns:xlink="http://www.w3.org/1999/xlink" version="1.1">
 <!-- Generated by Pixelmator Pro 1.8 -->
 <path id="Path" d="M12.44 1.073 C11.732 0.365 10.794 -0.065 9.795 -0.14 8.797 -0.214 7.805 0.072 7 0.667 6.152 0.036 5.096 -0.25 4.045 -0.134 2.995 -0.018 2.027 0.493 1.337 1.294 0.648 2.095 0.287 3.128 0.329 4.184 0.37 5.24 0.81 6.242 1.56 6.987 L6.527 11.953 C6.589 12.016 6.662 12.065 6.744 12.099 6.825 12.133 6.912 12.151 7 12.151 7.088 12.151 7.175 12.133 7.256 12.099 7.338 12.065 7.411 12.016 7.473 11.953 L12.44 6.987 C12.828 6.598 13.137 6.138 13.347 5.63 13.557 5.123 13.665 4.579 13.665 4.03 13.665 3.481 13.557 2.937 13.347 2.43 13.137 1.922 12.828 1.462 12.44 1.073 Z M11.5 6.047 L7 10.54 2.5 6.047 C2.103 5.648 1.833 5.142 1.723 4.591 1.614 4.04 1.669 3.468 1.883 2.949 2.096 2.429 2.459 1.984 2.924 1.669 3.39 1.354 3.938 1.184 4.5 1.18 5.251 1.182 5.97 1.482 6.5 2.013 6.562 2.076 6.636 2.125 6.717 2.159 6.798 2.193 6.885 2.211 6.973 2.211 7.061 2.211 7.148 2.193 7.23 2.159 7.311 2.125 7.385 2.076 7.447 2.013 7.992 1.541 8.697 1.293 9.418 1.32 10.14 1.347 10.824 1.648 11.332 2.16 11.84 2.673 12.135 3.359 12.156 4.081 12.178 4.802 11.924 5.505 11.447 6.047 Z" fill="#ffffff" fill-opacity="1" stroke="none"/>
</svg>
