<svg width="65" height="65" viewBox="0 0 65 65" fill="none" xmlns="http://www.w3.org/2000/svg">
<g clip-path="url(#clip0_146_3080)">
<path d="M61.2561 24.0855L62.2284 22.3315C62.4872 21.8644 62.3185 21.276 61.8514 21.0172C61.4625 20.8016 60.9905 20.8834 60.6936 21.1858C56.4562 8.6056 44.6238 0.00292969 31.1635 0.00292969C22.8394 0.00292969 15.0135 3.24445 9.12758 9.13051C3.24152 15.0166 0 22.8423 0 31.1664C0 38.2513 2.31725 44.9278 6.70102 50.474C10.9528 55.8532 16.9363 59.7302 23.5494 61.3911C24.9691 61.7476 26.4398 61.9684 28.0457 62.066C28.0657 62.0672 28.0856 62.0678 28.1053 62.0678C28.6125 62.0678 29.0382 61.6727 29.0694 61.1597C29.1017 60.6266 28.6961 60.1685 28.163 60.136C26.6779 60.0458 25.3228 59.8429 24.0204 59.5157C11.0161 56.2496 1.93362 44.592 1.93362 31.1664C1.93362 15.0491 15.0461 1.93655 31.1635 1.93655C43.7494 1.93655 54.818 9.95449 58.824 21.693C58.4289 21.6234 58.0163 21.8054 57.8109 22.1757C57.5521 22.6426 57.7208 23.2312 58.1877 23.4899L59.9146 24.4472C59.966 24.4779 60.3008 24.6701 60.7052 24.5408C61.0583 24.4283 61.2216 24.1483 61.2561 24.0855Z" fill="#D3CDBF"/>
<path d="M47.6088 10.0999L10.2256 47.4832C9.84799 47.8609 9.84799 48.4729 10.2256 48.8505C10.4143 49.0392 10.6618 49.1336 10.9092 49.1336C11.1565 49.1336 11.404 49.0392 11.5928 48.8505L48.976 11.4672C49.3536 11.0895 49.3536 10.4775 48.976 10.0999C48.5985 9.72257 47.9863 9.72257 47.6088 10.0999Z" fill="#D3CDBF"/>
<path d="M12.3724 16.4346C8.40898 16.4346 7.06228 21.5935 9.15213 21.5935C9.68581 21.5935 10.1189 21.161 10.1189 20.6267C10.1189 19.3841 11.1298 18.3733 12.3722 18.3733C14.4451 18.3733 15.4186 20.9577 13.8522 22.326L8.51339 26.9911C7.84281 27.5771 8.25867 28.6858 9.14955 28.6858H15.5949C16.1289 28.6858 16.5618 28.2481 16.5618 27.714C16.5618 27.1799 16.1289 26.7472 15.5949 26.7472H11.7347L15.1277 23.7861C18.0316 21.2517 16.2404 16.4346 12.3724 16.4346Z" fill="#46525E"/>
<path d="M26.293 24.1689H24.6865L24.6815 17.4029C24.681 16.8692 24.2484 16.437 23.7147 16.437C23.181 16.437 22.7479 16.8696 22.7479 17.4038V24.1689H19.2799C19.2999 24.1114 20.8791 19.5764 20.8947 19.5177C21.2373 18.2134 19.4596 17.7484 19.0632 18.8906L17.003 24.8236C16.7851 25.4514 17.252 26.1076 17.9163 26.1076H22.7476C22.7474 27.763 22.6646 28.0354 23.032 28.4025C23.6402 29.0111 24.6864 28.575 24.6864 27.7165V26.1077H26.2929C26.8269 26.1077 27.2597 25.6749 27.2597 25.1409C27.2598 24.5872 26.8144 24.1689 26.293 24.1689Z" fill="#46525E"/>
<path d="M41.9992 32.3572C41.8232 32.0725 41.5124 31.8994 41.1778 31.8994H35.2568C34.7234 31.8994 34.291 32.3318 34.291 32.8652C34.291 33.3986 34.7234 33.831 35.2568 33.831H39.6162L35.1624 42.7533C34.9242 43.2306 35.118 43.8105 35.5952 44.0487C35.7338 44.118 35.8808 44.1507 36.0257 44.1507C36.3802 44.1507 36.7216 43.9548 36.8906 43.6161L42.0418 33.2966C42.1914 32.9971 42.1753 32.6418 41.9992 32.3572Z" fill="#46525E"/>
<path d="M56.4998 27.325C54.8349 27.6277 53.6257 29.0775 53.6257 30.7696V33.9483C53.6257 35.6409 54.8361 37.0912 56.5013 37.3939L56.8878 37.4642C55.1262 46.9206 47.8706 54.4687 38.5699 56.658C38.3332 54.9228 36.8511 53.6291 35.0998 53.6291H30.9009C29.1497 53.6291 27.6677 54.9224 27.4312 56.6575C26.7431 61.7036 30.6239 65.2264 34.8462 64.9848C51.118 64.054 64.1367 50.9991 64.9901 34.6902C65.2222 30.2527 61.3463 26.4438 56.4998 27.325Z" fill="#6C7A88"/>
<path d="M34.8462 64.9845C51.1179 64.0537 64.1366 50.9988 64.99 34.6899C65.0609 33.3346 64.747 32.0388 64.1409 30.9165C62.4899 31.286 61.2207 32.7166 61.128 34.488C60.3764 48.8516 48.9827 60.3025 34.6253 61.1238C32.856 61.2249 31.4337 62.501 31.0702 64.1505C32.205 64.7587 33.5081 65.0611 34.8462 64.9845Z" fill="#596775"/>
</g>
<defs>
<clipPath id="clip0_146_3080">
<rect width="65" height="65" fill="white"/>
</clipPath>
</defs>
</svg>
